<svg version="1.1" id="Layer_1" xmlns="http://www.w3.org/2000/svg" xmlns:xlink="http://www.w3.org/1999/xlink" x="0px" y="0px"
	 width="100%" viewBox="0 0 512 512" enable-background="new 0 0 512 512" xml:space="preserve">
<path fill="#000000" opacity="1.000000" stroke="none" 
	d="
M1.000000,188.000000 
	C1.000000,125.333336 1.000000,63.166668 1.000000,1.000000 
	C171.666672,1.000000 342.333344,1.000000 513.000000,1.000000 
	C513.000000,171.666672 513.000000,342.333344 513.000000,513.000000 
	C342.333344,513.000000 171.666672,513.000000 1.000000,513.000000 
	C1.000000,404.833344 1.000000,296.666656 1.000000,188.000000 
M134.637527,134.756989 
	C136.586472,133.028473 138.535416,131.299957 140.844559,129.251968 
	C145.433182,134.640244 149.839737,139.607895 154.020676,144.758698 
	C176.577072,172.547440 193.934891,203.244949 205.630783,237.118195 
	C206.137268,238.585083 207.569916,240.702179 208.724213,240.805466 
	C213.428177,241.226395 218.191757,240.980774 223.610031,240.980774 
	C210.872406,181.123047 181.694687,130.608414 143.895355,84.347672 
	C146.042175,82.346169 147.968872,80.549881 149.983459,78.671661 
	C147.673416,75.914047 145.502457,73.322464 142.849167,70.155106 
	C136.002075,77.118103 129.526474,83.552483 123.297356,90.217247 
	C122.461952,91.111069 122.456413,93.261177 122.773300,94.670639 
	C124.414787,101.971664 126.656166,109.158058 127.908646,116.517120 
	C128.469696,119.813629 127.209236,123.420166 126.095688,127.154343 
	C122.925827,129.521790 119.673767,129.180344 116.197395,127.753830 
	C105.739082,123.462250 95.237282,119.275436 84.720161,115.129654 
	C83.225647,114.540535 81.282974,113.692001 80.003944,114.174042 
	C70.003052,117.943253 60.113640,122.008255 49.806057,126.135651 
	C55.399597,129.298004 60.315540,132.077271 65.324684,134.909225 
	C66.957779,132.530853 68.439919,130.372314 70.342163,127.601929 
	C78.914894,133.441986 87.461029,138.854462 95.568886,144.858765 
	C129.204758,169.768021 158.286880,198.542130 173.978668,238.523499 
	C174.396774,239.588806 175.967850,240.811493 177.074966,240.887527 
	C181.172195,241.168869 185.300369,240.999481 189.983307,240.999481 
	C176.619827,202.862473 156.006699,169.827805 129.187988,140.319290 
	C130.925171,138.416580 132.470932,136.723557 134.637527,134.756989 
M374.635620,407.100250 
	C380.189026,392.182251 384.772278,376.810791 391.490692,362.437317 
	C407.178040,328.875488 410.861725,293.660614 408.548187,256.902283 
	C313.084473,256.902283 217.683685,256.902283 122.171394,256.902283 
	C122.029396,254.070602 121.908295,251.655701 121.786728,249.231400 
	C118.669250,249.231400 115.900139,249.231400 111.759956,249.231400 
	C113.380569,252.133072 114.260696,254.534821 115.828720,256.338501 
	C118.773560,259.725983 122.082687,262.801910 125.302864,265.943329 
	C128.244186,268.812653 130.134460,271.943146 128.246460,276.157043 
	C126.497749,280.060059 123.233734,281.186157 119.243729,281.014496 
	C117.295036,280.930603 115.339752,280.999939 113.234070,280.999939 
	C113.234070,284.840332 113.234070,288.246307 113.234070,292.074768 
	C115.860077,292.074768 118.269600,292.074768 120.999580,292.074768 
	C120.999580,304.130615 121.039558,315.764252 120.984245,327.397461 
	C120.952171,334.142029 118.027954,336.949402 111.113998,336.990540 
	C103.948311,337.033142 96.781448,336.936096 89.616425,337.017090 
	C80.163734,337.123871 73.145454,343.822052 73.011246,352.731567 
	C72.874146,361.833069 79.996742,368.865936 89.608910,368.981781 
	C96.773811,369.068146 103.940765,368.967346 111.106461,369.009155 
	C118.222733,369.050659 120.944702,371.843842 120.994576,379.086548 
	C121.024033,383.364624 120.999962,387.643036 120.999962,392.118835 
	C135.790573,390.252777 145.933060,381.555359 154.752106,371.837036 
	C158.822632,375.682495 162.524673,379.179840 166.275421,382.723206 
	C154.269302,396.738770 139.806808,406.094788 121.227249,408.452332 
	C121.227249,410.370850 121.044144,412.021423 121.254997,413.620056 
	C123.958733,434.119781 140.503845,448.879059 161.255600,448.962982 
	C193.918411,449.095032 226.582138,448.999237 259.245483,448.999939 
	C261.031921,448.999969 262.818329,448.999969 264.760406,448.999969 
	C264.760406,454.506622 264.760406,459.572754 264.760406,465.077148 
	C246.122681,465.077148 227.720001,465.077148 209.279358,465.077148 
	C209.279358,470.589447 209.279358,475.656464 209.279358,480.705078 
	C262.622040,480.705078 315.684875,480.705078 369.913300,480.705078 
	C369.913300,463.551056 369.913300,446.685547 369.913300,429.598450 
	C373.528503,429.796814 375.971893,429.930878 378.932831,430.093323 
	C379.726837,425.072754 380.492554,420.230896 381.237488,415.520721 
	C377.976227,414.762878 375.601257,414.211029 373.190491,413.650818 
	C373.635162,411.442230 373.995636,409.651947 374.635620,407.100250 
M308.620026,97.107704 
	C290.672058,115.637566 271.297058,117.486923 242.881851,103.076569 
	C243.988678,106.316986 245.037643,109.162003 245.927780,112.055885 
	C246.867798,115.111946 247.656418,118.214577 248.575241,121.527847 
	C250.145035,121.223343 251.260025,121.044655 252.355713,120.784683 
	C253.631378,120.482010 254.890152,120.108192 256.859253,119.574829 
	C267.174835,161.927994 266.133179,202.491562 242.383041,240.417984 
	C242.884003,240.679855 243.147446,240.936981 243.412415,240.938568 
	C249.909088,240.977188 256.441620,240.577332 262.891296,241.136917 
	C267.927765,241.573898 270.724915,239.467148 273.510101,235.692169 
	C298.937744,201.227966 311.127472,162.649246 309.990753,119.844955 
	C309.943756,118.075233 309.984772,116.303169 309.984772,114.497231 
	C312.860992,113.986809 315.272247,113.558907 318.422913,112.999779 
	C317.330750,105.092651 316.281586,97.496986 315.090668,88.874947 
	C312.536041,92.155586 310.813263,94.367958 308.620026,97.107704 
M480.193085,44.420788 
	C479.792938,42.639595 479.265717,40.875957 479.016785,39.073875 
	C478.305695,33.926037 475.457092,32.466816 470.412018,32.954739 
	C454.781555,34.466415 442.104065,41.086899 432.908966,53.885368 
	C423.885803,66.444489 415.059814,79.145348 406.161346,91.793900 
	C403.498474,95.579010 400.882812,99.397331 398.060669,103.466965 
	C411.262665,112.759735 424.139160,121.823387 437.353699,131.125000 
	C449.950714,112.995865 462.610657,95.479965 474.462982,77.433640 
	C480.766754,67.835594 482.256073,56.707863 480.193085,44.420788 
M341.270111,196.750977 
	C334.947693,210.713715 330.411102,225.143814 329.436920,241.006607 
	C338.081543,241.006607 346.379395,241.187195 354.659790,240.886292 
	C356.875580,240.805771 359.517273,239.781281 361.148010,238.295288 
	C372.830994,227.649109 380.498077,214.287766 385.980316,199.659302 
	C388.878326,191.926605 391.098419,183.939865 393.685699,175.877380 
	C395.869141,176.170914 398.137604,176.475876 400.406067,176.780823 
	C400.509399,176.559662 400.612732,176.338501 400.716064,176.117340 
	C388.261597,168.657684 375.807129,161.198013 363.352661,153.738342 
	C363.170746,154.004059 362.988800,154.269775 362.806885,154.535492 
	C363.960632,155.873138 365.114380,157.210770 365.332916,157.464142 
	C357.212494,170.712875 349.431671,183.407547 341.270111,196.750977 
M72.832123,59.283543 
	C71.173790,62.963501 68.251472,64.602219 64.316460,65.292992 
	C56.871403,66.599930 49.494377,68.294403 40.968262,70.059952 
	C45.801281,74.741638 49.852291,78.655426 53.891113,82.581757 
	C56.628860,85.243256 57.536430,88.323196 56.485126,92.114243 
	C55.130157,97.000343 54.056721,101.964508 52.671379,107.681885 
	C60.154427,104.699677 66.891006,102.349144 73.323288,99.346695 
	C78.550972,96.906525 83.262703,96.813698 88.523659,99.268463 
	C95.029137,102.303932 101.843628,104.677101 109.331741,107.657700 
	C107.983109,102.022926 107.109512,97.307571 105.693481,92.761169 
	C104.322411,88.359123 105.430412,84.959007 108.674889,81.984230 
	C112.653786,78.336075 116.621437,74.675659 121.553299,70.137833 
	C112.292923,68.231949 104.865692,66.519646 97.365616,65.231377 
	C93.134857,64.504677 90.571693,62.330334 88.809959,58.546066 
	C86.480522,53.542358 83.829971,48.688148 80.959938,43.069859 
	C78.031380,48.860031 75.568565,53.729355 72.832123,59.283543 
M248.980789,32.485149 
	C246.524445,34.546379 244.068100,36.607609 241.357361,38.882313 
	C243.926315,41.148788 245.888275,42.879749 248.022995,44.763107 
	C240.989090,54.708080 238.866776,65.254410 243.473099,77.090271 
	C264.019135,72.133812 284.296967,67.242050 304.812012,62.293060 
	C303.818909,52.991596 300.000214,45.680653 293.052246,40.169395 
	C282.595520,31.874941 271.011993,31.097267 258.866211,36.045811 
	C257.430206,33.375153 256.206543,31.099426 254.724747,28.343580 
	C252.656052,29.787182 251.084702,30.883728 248.980789,32.485149 
M66.233269,284.119232 
	C68.464386,279.857483 70.878448,275.679382 72.875862,271.310760 
	C74.928490,266.821411 78.068893,264.756317 83.057373,264.950867 
	C88.920502,265.179565 94.799377,265.004456 102.158607,265.004456 
	C98.804420,261.853790 96.744125,259.664551 94.425499,257.795807 
	C90.171074,254.366898 88.587074,250.124161 88.912010,244.651672 
	C89.302475,238.075684 89.004318,231.458801 89.004318,223.957108 
	C85.149918,226.524551 81.939072,228.508514 78.898926,230.726471 
	C74.837936,233.689194 70.990105,233.582047 66.970085,230.643555 
	C63.948135,228.434616 60.751747,226.464294 56.995659,223.963379 
	C56.995659,229.217316 56.782665,233.529312 57.053989,237.810608 
	C57.340385,242.329773 55.941151,245.864288 52.537098,248.858292 
	C48.426441,252.473755 44.526516,256.328827 39.822926,260.749878 
	C44.330399,262.079620 47.595959,263.295868 50.969467,263.979126 
	C56.067406,265.011566 59.149712,267.857391 60.772854,272.780365 
	C62.069912,276.714325 63.880222,280.479095 66.233269,284.119232 
M277.868378,96.650620 
	C287.964050,94.733917 295.729706,89.626076 301.413696,79.565041 
	C285.321716,83.446579 270.375885,87.051651 254.492691,90.882835 
	C261.924652,96.087006 269.171082,97.567451 277.868378,96.650620 
M412.213074,146.668045 
	C413.176331,144.203278 413.939148,141.634018 415.155457,139.301178 
	C416.561523,136.604370 415.647003,135.182709 413.321198,133.682968 
	C409.017456,130.907791 404.901520,127.841331 400.421387,124.695389 
	C396.285431,128.267410 392.239380,131.761795 387.907654,135.502899 
	C395.688904,140.939636 402.938995,146.005264 410.407440,151.223434 
	C411.112427,149.510193 411.550659,148.445221 412.213074,146.668045 
M467.036957,144.346756 
	C467.565857,142.301987 469.072357,139.864014 468.438110,138.287064 
	C466.622253,133.772476 463.938019,129.607147 461.267822,124.703156 
	C457.421021,130.171478 453.947571,135.109085 450.435669,140.101349 
	C454.797424,143.996307 460.806366,145.718353 460.189484,153.999191 
	C463.000153,150.049255 464.808380,147.508057 467.036957,144.346756 
M388.113525,77.401878 
	C384.322113,78.122536 380.136200,73.547989 376.670013,78.142921 
	C374.265991,81.329773 372.064514,84.669380 370.492767,86.912743 
	C375.679657,89.185364 380.310425,91.214333 385.441833,93.462639 
	C388.541626,89.059464 391.983185,84.170799 395.844299,78.686165 
	C392.804077,78.206993 390.871674,77.902420 388.113525,77.401878 
z"/>
<path fill="#FDC8A2" opacity="1.000000" stroke="none" 
	d="
M374.495850,407.480957 
	C373.995636,409.651947 373.635162,411.442230 373.190491,413.650818 
	C375.601257,414.211029 377.976227,414.762878 381.237488,415.520721 
	C380.492554,420.230896 379.726837,425.072754 378.932831,430.093323 
	C375.971893,429.930878 373.528503,429.796814 369.913300,429.598450 
	C369.913300,446.685547 369.913300,463.551056 369.913300,480.705078 
	C315.684875,480.705078 262.622040,480.705078 209.279358,480.705078 
	C209.279358,475.656464 209.279358,470.589447 209.279358,465.077148 
	C227.720001,465.077148 246.122681,465.077148 264.760406,465.077148 
	C264.760406,459.572754 264.760406,454.506622 264.760406,448.999969 
	C262.818329,448.999969 261.031921,448.999969 259.245483,448.999939 
	C226.582138,448.999237 193.918411,449.095032 161.255600,448.962982 
	C140.503845,448.879059 123.958733,434.119781 121.254997,413.620056 
	C121.044144,412.021423 121.227249,410.370850 121.227249,408.452332 
	C139.806808,406.094788 154.269302,396.738770 166.275421,382.723206 
	C162.524673,379.179840 158.822632,375.682495 154.752106,371.837036 
	C145.933060,381.555359 135.790573,390.252777 120.999962,392.118835 
	C120.999962,387.643036 121.024033,383.364624 120.994576,379.086548 
	C120.944702,371.843842 118.222733,369.050659 111.106461,369.009155 
	C103.940765,368.967346 96.773811,369.068146 89.608910,368.981781 
	C79.996742,368.865936 72.874146,361.833069 73.011246,352.731567 
	C73.145454,343.822052 80.163734,337.123871 89.616425,337.017090 
	C96.781448,336.936096 103.948311,337.033142 111.113998,336.990540 
	C118.027954,336.949402 120.952171,334.142029 120.984245,327.397461 
	C121.039558,315.764252 120.999580,304.130615 120.999580,292.074768 
	C118.269600,292.074768 115.860077,292.074768 113.234070,292.074768 
	C113.234070,288.246307 113.234070,284.840332 113.234070,280.999939 
	C115.339752,280.999939 117.295036,280.930603 119.243729,281.014496 
	C123.233734,281.186157 126.497749,280.060059 128.246460,276.157043 
	C130.134460,271.943146 128.244186,268.812653 125.302864,265.943329 
	C122.082687,262.801910 118.773560,259.725983 115.828720,256.338501 
	C114.260696,254.534821 113.380569,252.133072 111.759956,249.231400 
	C115.900139,249.231400 118.669250,249.231400 121.786728,249.231400 
	C121.908295,251.655701 122.029396,254.070602 122.171394,256.902283 
	C217.683685,256.902283 313.084473,256.902283 408.548187,256.902283 
	C410.861725,293.660614 407.178040,328.875488 391.490692,362.437317 
	C384.772278,376.810791 380.189026,392.182251 374.495850,407.480957 
M375.932068,357.491211 
	C382.924774,342.933899 388.121338,327.818787 390.599670,311.449860 
	C385.199066,310.555115 380.198151,309.726593 374.668121,308.810394 
	C372.030273,333.504028 358.449982,353.885590 350.382446,376.569672 
	C355.711517,378.447540 360.483429,380.129089 365.098267,381.755280 
	C368.734894,373.601227 372.174835,365.888184 375.932068,357.491211 
M388.386993,280.992310 
	C384.650238,280.992310 380.913483,280.992310 376.942230,280.992310 
	C376.942230,286.374298 376.942230,291.130798 376.942230,296.384338 
	C381.969269,296.765747 386.986847,297.146454 393.005615,297.603119 
	C393.005615,292.850372 392.803162,288.584961 393.073517,284.349701 
	C393.268951,281.288177 391.935455,280.618896 388.386993,280.992310 
M306.452820,272.999969 
	C303.362793,272.999969 300.272766,272.999969 297.317749,272.999969 
	C297.317749,278.692383 297.317749,283.747589 297.317749,288.679321 
	C302.696533,288.679321 307.753143,288.679321 312.675842,288.679321 
	C312.675842,283.297852 312.675842,278.241577 312.675842,272.999969 
	C310.707306,272.999969 309.061890,272.999969 306.452820,272.999969 
M268.654663,337.000000 
	C272.727539,337.000000 276.800385,337.000000 280.647888,337.000000 
	C280.647888,331.236023 280.647888,326.175842 280.647888,321.354980 
	C275.230072,321.354980 270.169495,321.354980 265.000641,321.354980 
	C265.000641,325.855560 264.829010,330.013885 265.123413,334.138977 
	C265.195435,335.148285 266.793060,336.048767 268.654663,337.000000 
z"/>
<path fill="#94B067" opacity="1.000000" stroke="none" 
	d="
M308.855255,96.844017 
	C310.813263,94.367958 312.536041,92.155586 315.090668,88.874947 
	C316.281586,97.496986 317.330750,105.092651 318.422913,112.999779 
	C315.272247,113.558907 312.860992,113.986809 309.984772,114.497231 
	C309.984772,116.303169 309.943756,118.075233 309.990753,119.844955 
	C311.127472,162.649246 298.937744,201.227966 273.510101,235.692169 
	C270.724915,239.467148 267.927765,241.573898 262.891296,241.136917 
	C256.441620,240.577332 249.909088,240.977188 243.412415,240.938568 
	C243.147446,240.936981 242.884003,240.679855 242.383041,240.417984 
	C266.133179,202.491562 267.174835,161.927994 256.859253,119.574829 
	C254.890152,120.108192 253.631378,120.482010 252.355713,120.784683 
	C251.260025,121.044655 250.145035,121.223343 248.575241,121.527847 
	C247.656418,118.214577 246.867798,115.111946 245.927780,112.055885 
	C245.037643,109.162003 243.988678,106.316986 242.881851,103.076569 
	C271.297058,117.486923 290.672058,115.637566 308.855255,96.844017 
M276.684723,140.847092 
	C276.107483,151.948502 275.530243,163.049896 274.929504,174.603363 
	C279.478638,175.389496 284.469574,176.251968 289.856476,177.182861 
	C292.782654,158.820084 294.238159,140.983795 290.637787,122.646545 
	C285.093201,123.982193 280.187012,125.164062 275.449585,126.305275 
	C275.892120,131.311646 276.272949,135.619675 276.684723,140.847092 
z"/>
<path fill="#D44934" opacity="1.000000" stroke="none" 
	d="
M126.775375,126.886009 
	C127.209236,123.420166 128.469696,119.813629 127.908646,116.517120 
	C126.656166,109.158058 124.414787,101.971664 122.773300,94.670639 
	C122.456413,93.261177 122.461952,91.111069 123.297356,90.217247 
	C129.526474,83.552483 136.002075,77.118103 142.849167,70.155106 
	C145.502457,73.322464 147.673416,75.914047 149.983459,78.671661 
	C147.968872,80.549881 146.042175,82.346169 143.895355,84.347672 
	C181.694687,130.608414 210.872406,181.123047 223.610031,240.980774 
	C218.191757,240.980774 213.428177,241.226395 208.724213,240.805466 
	C207.569916,240.702179 206.137268,238.585083 205.630783,237.118195 
	C193.934891,203.244949 176.577072,172.547440 154.020676,144.758698 
	C149.839737,139.607895 145.433182,134.640244 140.844559,129.251968 
	C138.535416,131.299957 136.586472,133.028473 134.268707,134.552719 
	C131.525055,131.860977 129.150208,129.373489 126.775375,126.886009 
z"/>
<path fill="#DB543F" opacity="1.000000" stroke="none" 
	d="
M126.435532,127.020172 
	C129.150208,129.373489 131.525055,131.860977 133.958282,134.689484 
	C132.470932,136.723557 130.925171,138.416580 129.187988,140.319290 
	C156.006699,169.827805 176.619827,202.862473 189.983307,240.999481 
	C185.300369,240.999481 181.172195,241.168869 177.074966,240.887527 
	C175.967850,240.811493 174.396774,239.588806 173.978668,238.523499 
	C158.286880,198.542130 129.204758,169.768021 95.568886,144.858765 
	C87.461029,138.854462 78.914894,133.441986 70.342163,127.601929 
	C68.439919,130.372314 66.957779,132.530853 65.324684,134.909225 
	C60.315540,132.077271 55.399597,129.298004 49.806057,126.135651 
	C60.113640,122.008255 70.003052,117.943253 80.003944,114.174042 
	C81.282974,113.692001 83.225647,114.540535 84.720161,115.129654 
	C95.237282,119.275436 105.739082,123.462250 116.197395,127.753830 
	C119.673767,129.180344 122.925827,129.521790 126.435532,127.020172 
z"/>
<path fill="#DB543F" opacity="1.000000" stroke="none" 
	d="
M480.279968,44.849171 
	C482.256073,56.707863 480.766754,67.835594 474.462982,77.433640 
	C462.610657,95.479965 449.950714,112.995865 437.353699,131.125000 
	C424.139160,121.823387 411.262665,112.759735 398.060669,103.466965 
	C400.882812,99.397331 403.498474,95.579010 406.161346,91.793900 
	C415.059814,79.145348 423.885803,66.444489 432.908966,53.885368 
	C442.104065,41.086899 454.781555,34.466415 470.412018,32.954739 
	C475.457092,32.466816 478.305695,33.926037 479.016785,39.073875 
	C479.265717,40.875957 479.792938,42.639595 480.279968,44.849171 
M443.838562,76.700264 
	C451.328186,82.270035 459.046417,82.246040 465.153778,76.633972 
	C470.879028,71.373032 471.992371,62.616535 467.755341,56.173569 
	C462.730133,48.532116 452.379700,46.683113 444.978149,52.104683 
	C437.255920,57.761227 436.536255,68.077263 443.838562,76.700264 
z"/>
<path fill="#FBB130" opacity="1.000000" stroke="none" 
	d="
M341.460510,196.426605 
	C349.431671,183.407547 357.212494,170.712875 365.332916,157.464142 
	C365.114380,157.210770 363.960632,155.873138 362.806885,154.535492 
	C362.988800,154.269775 363.170746,154.004059 363.352661,153.738342 
	C375.807129,161.198013 388.261597,168.657684 400.716064,176.117340 
	C400.612732,176.338501 400.509399,176.559662 400.406067,176.780823 
	C398.137604,176.475876 395.869141,176.170914 393.685699,175.877380 
	C391.098419,183.939865 388.878326,191.926605 385.980316,199.659302 
	C380.498077,214.287766 372.830994,227.649109 361.148010,238.295288 
	C359.517273,239.781281 356.875580,240.805771 354.659790,240.886292 
	C346.379395,241.187195 338.081543,241.006607 329.436920,241.006607 
	C330.411102,225.143814 334.947693,210.713715 341.460510,196.426605 
M372.429230,174.197906 
	C371.186615,174.565964 369.304016,174.539505 368.797424,175.361298 
	C361.223450,187.647583 353.831055,200.045837 346.120209,212.876434 
	C350.727173,215.629303 355.182709,218.291702 359.871429,221.093445 
	C367.946899,207.631363 375.778076,194.576599 383.820251,181.170074 
	C380.051880,178.884186 376.530426,176.748062 372.429230,174.197906 
z"/>
<path fill="#FCB230" opacity="1.000000" stroke="none" 
	d="
M72.968933,58.941109 
	C75.568565,53.729355 78.031380,48.860031 80.959938,43.069859 
	C83.829971,48.688148 86.480522,53.542358 88.809959,58.546066 
	C90.571693,62.330334 93.134857,64.504677 97.365616,65.231377 
	C104.865692,66.519646 112.292923,68.231949 121.553299,70.137833 
	C116.621437,74.675659 112.653786,78.336075 108.674889,81.984230 
	C105.430412,84.959007 104.322411,88.359123 105.693481,92.761169 
	C107.109512,97.307571 107.983109,102.022926 109.331741,107.657700 
	C101.843628,104.677101 95.029137,102.303932 88.523659,99.268463 
	C83.262703,96.813698 78.550972,96.906525 73.323288,99.346695 
	C66.891006,102.349144 60.154427,104.699677 52.671379,107.681885 
	C54.056721,101.964508 55.130157,97.000343 56.485126,92.114243 
	C57.536430,88.323196 56.628860,85.243256 53.891113,82.581757 
	C49.852291,78.655426 45.801281,74.741638 40.968262,70.059952 
	C49.494377,68.294403 56.871403,66.599930 64.316460,65.292992 
	C68.251472,64.602219 71.173790,62.963501 72.968933,58.941109 
z"/>
<path fill="#338CD5" opacity="1.000000" stroke="none" 
	d="
M249.247070,32.232712 
	C251.084702,30.883728 252.656052,29.787182 254.724747,28.343580 
	C256.206543,31.099426 257.430206,33.375153 258.866211,36.045811 
	C271.011993,31.097267 282.595520,31.874941 293.052246,40.169395 
	C300.000214,45.680653 303.818909,52.991596 304.812012,62.293060 
	C284.296967,67.242050 264.019135,72.133812 243.473099,77.090271 
	C238.866776,65.254410 240.989090,54.708080 248.022995,44.763107 
	C245.888275,42.879749 243.926315,41.148788 241.357361,38.882313 
	C244.068100,36.607609 246.524445,34.546379 249.247070,32.232712 
M274.774292,41.027657 
	C274.207977,41.484219 273.161591,41.928490 273.149536,42.399242 
	C273.027802,47.153332 273.075317,51.911758 273.075317,56.638802 
	C278.672211,56.638802 283.718872,56.638802 288.590332,56.638802 
	C288.590332,51.225700 288.590332,46.175514 288.590332,41.008965 
	C284.032959,41.008965 279.879181,41.008965 274.774292,41.027657 
z"/>
<path fill="#FCB230" opacity="1.000000" stroke="none" 
	d="
M65.847992,284.219086 
	C63.880222,280.479095 62.069912,276.714325 60.772854,272.780365 
	C59.149712,267.857391 56.067406,265.011566 50.969467,263.979126 
	C47.595959,263.295868 44.330399,262.079620 39.822926,260.749878 
	C44.526516,256.328827 48.426441,252.473755 52.537098,248.858292 
	C55.941151,245.864288 57.340385,242.329773 57.053989,237.810608 
	C56.782665,233.529312 56.995659,229.217316 56.995659,223.963379 
	C60.751747,226.464294 63.948135,228.434616 66.970085,230.643555 
	C70.990105,233.582047 74.837936,233.689194 78.898926,230.726471 
	C81.939072,228.508514 85.149918,226.524551 89.004318,223.957108 
	C89.004318,231.458801 89.302475,238.075684 88.912010,244.651672 
	C88.587074,250.124161 90.171074,254.366898 94.425499,257.795807 
	C96.744125,259.664551 98.804420,261.853790 102.158607,265.004456 
	C94.799377,265.004456 88.920502,265.179565 83.057373,264.950867 
	C78.068893,264.756317 74.928490,266.821411 72.875862,271.310760 
	C70.878448,275.679382 68.464386,279.857483 65.847992,284.219086 
z"/>
<path fill="#3289D1" opacity="1.000000" stroke="none" 
	d="
M277.435913,96.726440 
	C269.171082,97.567451 261.924652,96.087006 254.492691,90.882835 
	C270.375885,87.051651 285.321716,83.446579 301.413696,79.565041 
	C295.729706,89.626076 287.964050,94.733917 277.435913,96.726440 
z"/>
<path fill="#3289D1" opacity="1.000000" stroke="none" 
	d="
M412.101013,147.024139 
	C411.550659,148.445221 411.112427,149.510193 410.407440,151.223434 
	C402.938995,146.005264 395.688904,140.939636 387.907654,135.502899 
	C392.239380,131.761795 396.285431,128.267410 400.421387,124.695389 
	C404.901520,127.841331 409.017456,130.907791 413.321198,133.682968 
	C415.647003,135.182709 416.561523,136.604370 415.155457,139.301178 
	C413.939148,141.634018 413.176331,144.203278 412.101013,147.024139 
z"/>
<path fill="#3289D1" opacity="1.000000" stroke="none" 
	d="
M466.826782,144.656799 
	C464.808380,147.508057 463.000153,150.049255 460.189484,153.999191 
	C460.806366,145.718353 454.797424,143.996307 450.435669,140.101349 
	C453.947571,135.109085 457.421021,130.171478 461.267822,124.703156 
	C463.938019,129.607147 466.622253,133.772476 468.438110,138.287064 
	C469.072357,139.864014 467.565857,142.301987 466.826782,144.656799 
z"/>
<path fill="#3289D1" opacity="1.000000" stroke="none" 
	d="
M388.526398,77.499863 
	C390.871674,77.902420 392.804077,78.206993 395.844299,78.686165 
	C391.983185,84.170799 388.541626,89.059464 385.441833,93.462639 
	C380.310425,91.214333 375.679657,89.185364 370.492767,86.912743 
	C372.064514,84.669380 374.265991,81.329773 376.670013,78.142921 
	C380.136200,73.547989 384.322113,78.122536 388.526398,77.499863 
z"/>
<path fill="#040303" opacity="1.000000" stroke="none" 
	d="
M375.773438,357.833160 
	C372.174835,365.888184 368.734894,373.601227 365.098267,381.755280 
	C360.483429,380.129089 355.711517,378.447540 350.382446,376.569672 
	C358.449982,353.885590 372.030273,333.504028 374.668121,308.810394 
	C380.198151,309.726593 385.199066,310.555115 390.599670,311.449860 
	C388.121338,327.818787 382.924774,342.933899 375.773438,357.833160 
z"/>
<path fill="#040303" opacity="1.000000" stroke="none" 
	d="
M388.868103,280.992340 
	C391.935455,280.618896 393.268951,281.288177 393.073517,284.349701 
	C392.803162,288.584961 393.005615,292.850372 393.005615,297.603119 
	C386.986847,297.146454 381.969269,296.765747 376.942230,296.384338 
	C376.942230,291.130798 376.942230,286.374298 376.942230,280.992310 
	C380.913483,280.992310 384.650238,280.992310 388.868103,280.992340 
z"/>
<path fill="#000000" opacity="1.000000" stroke="none" 
	d="
M306.934662,272.999969 
	C309.061890,272.999969 310.707306,272.999969 312.675842,272.999969 
	C312.675842,278.241577 312.675842,283.297852 312.675842,288.679321 
	C307.753143,288.679321 302.696533,288.679321 297.317749,288.679321 
	C297.317749,283.747589 297.317749,278.692383 297.317749,272.999969 
	C300.272766,272.999969 303.362793,272.999969 306.934662,272.999969 
z"/>
<path fill="#000000" opacity="1.000000" stroke="none" 
	d="
M268.171967,336.999634 
	C266.793060,336.048767 265.195435,335.148285 265.123413,334.138977 
	C264.829010,330.013885 265.000641,325.855560 265.000641,321.354980 
	C270.169495,321.354980 275.230072,321.354980 280.647888,321.354980 
	C280.647888,326.175842 280.647888,331.236023 280.647888,337.000000 
	C276.800385,337.000000 272.727539,337.000000 268.171967,336.999634 
z"/>
<path fill="#040303" opacity="1.000000" stroke="none" 
	d="
M276.669250,140.387390 
	C276.272949,135.619675 275.892120,131.311646 275.449585,126.305275 
	C280.187012,125.164062 285.093201,123.982193 290.637787,122.646545 
	C294.238159,140.983795 292.782654,158.820084 289.856476,177.182861 
	C284.469574,176.251968 279.478638,175.389496 274.929504,174.603363 
	C275.530243,163.049896 276.107483,151.948502 276.669250,140.387390 
z"/>
<path fill="#000000" opacity="1.000000" stroke="none" 
	d="
M443.568359,76.443703 
	C436.536255,68.077263 437.255920,57.761227 444.978149,52.104683 
	C452.379700,46.683113 462.730133,48.532116 467.755341,56.173569 
	C471.992371,62.616535 470.879028,71.373032 465.153778,76.633972 
	C459.046417,82.246040 451.328186,82.270035 443.568359,76.443703 
z"/>
<path fill="#040303" opacity="1.000000" stroke="none" 
	d="
M372.719086,174.404922 
	C376.530426,176.748062 380.051880,178.884186 383.820251,181.170074 
	C375.778076,194.576599 367.946899,207.631363 359.871429,221.093445 
	C355.182709,218.291702 350.727173,215.629303 346.120209,212.876434 
	C353.831055,200.045837 361.223450,187.647583 368.797424,175.361298 
	C369.304016,174.539505 371.186615,174.565964 372.719086,174.404922 
z"/>
<path fill="#000000" opacity="1.000000" stroke="none" 
	d="
M275.249878,41.018311 
	C279.879181,41.008965 284.032959,41.008965 288.590332,41.008965 
	C288.590332,46.175514 288.590332,51.225700 288.590332,56.638802 
	C283.718872,56.638802 278.672211,56.638802 273.075317,56.638802 
	C273.075317,51.911758 273.027802,47.153332 273.149536,42.399242 
	C273.161591,41.928490 274.207977,41.484219 275.249878,41.018311 
z"/>
</svg>