<svg version="1.1" id="Layer_1" xmlns="http://www.w3.org/2000/svg" xmlns:xlink="http://www.w3.org/1999/xlink" x="0px" y="0px"
	 width="100%" viewBox="0 0 512 512" enable-background="new 0 0 512 512" xml:space="preserve">
<path fill="#010101" opacity="1.000000" stroke="none" 
	d="
M306.000000,513.000000 
	C204.024765,513.000000 102.549522,513.000000 1.037143,513.000000 
	C1.037143,342.399750 1.037143,171.799469 1.037143,1.099597 
	C171.558578,1.099597 342.117249,1.099597 512.837952,1.099597 
	C512.837952,171.666550 512.837952,342.333252 512.837952,513.000000 
	C444.132782,513.000000 375.316376,513.000000 306.000000,513.000000 
M241.252502,381.579071 
	C241.827927,381.612152 242.403366,381.645264 243.835083,381.922485 
	C289.642914,385.950714 324.457184,368.235229 348.212067,328.924255 
	C349.663025,326.523163 350.342712,323.347687 350.445435,320.498749 
	C350.739563,312.342865 350.567871,304.169586 350.548279,296.003174 
	C350.531311,288.939911 352.814636,282.824432 358.543396,278.531647 
	C360.972534,276.711395 361.762268,274.841370 361.748505,271.898560 
	C361.635254,247.733093 361.684052,223.566864 361.683685,199.400864 
	C361.683655,197.638580 361.683685,195.876312 361.683685,193.819183 
	C359.625549,193.819183 358.306580,193.819183 356.987610,193.819183 
	C295.989288,193.819275 234.990982,193.817947 173.992676,193.828842 
	C172.666229,193.829071 171.339798,193.969254 169.093323,193.843613 
	C163.657883,193.843613 158.222458,193.843613 152.628357,193.843613 
	C152.485489,195.186768 152.325119,195.990952 152.325241,196.795090 
	C152.329544,224.594864 152.031647,252.399506 152.458725,280.192963 
	C152.857300,306.131744 161.946152,329.004883 179.456131,348.190125 
	C196.009735,366.327484 216.289337,377.919891 240.906906,381.097382 
	C240.906906,381.097382 240.837738,381.161560 241.252502,381.579071 
M143.083115,135.803574 
	C137.317123,135.803574 131.551147,135.803574 125.565773,135.803574 
	C125.565773,151.982071 125.565773,167.657883 125.565773,183.648392 
	C131.926666,183.648392 138.015015,183.648392 145.016144,183.799927 
	C226.101746,183.799927 307.187347,183.799927 388.298401,183.799927 
	C388.298401,167.477234 388.298401,151.771744 388.298401,135.821259 
	C386.600800,135.821259 385.278473,135.821259 383.956177,135.821259 
	C305.299500,135.821259 226.642838,135.820374 147.986176,135.828903 
	C146.657990,135.829041 145.329803,135.943268 143.083115,135.803574 
M145.018204,125.864799 
	C226.201691,125.864799 307.385162,125.864799 389.162048,125.864799 
	C388.727661,120.480453 388.430023,116.027824 387.983826,111.590126 
	C387.768768,109.451225 387.388885,107.312943 386.888336,105.221107 
	C380.687592,79.308266 356.838959,58.544746 332.109955,58.086262 
	C325.880463,57.970764 322.680328,55.707661 319.919342,50.168938 
	C310.372650,31.017788 295.233093,17.110773 273.753021,15.347480 
	C249.681259,13.371432 225.307907,15.069240 200.252716,15.062104 
	C198.961487,15.344823 197.668182,15.618480 196.379318,15.911595 
	C169.517624,22.020559 149.766037,37.503284 136.275528,61.338478 
	C125.499771,80.377235 124.774590,101.216431 125.053535,122.273689 
	C125.091553,125.143471 126.501312,126.034424 129.125931,125.966766 
	C134.115616,125.838150 139.108246,125.823898 145.018204,125.864799 
M396.888306,500.383942 
	C422.496063,500.383942 448.103790,500.383942 474.225983,500.383942 
	C474.225983,498.237549 474.225983,496.447540 474.225983,494.657532 
	C474.225983,465.174957 474.316742,435.691803 474.134918,406.210327 
	C474.105316,401.409302 475.383423,398.149078 479.472534,395.351776 
	C483.832825,392.369019 487.767426,388.664459 491.507965,384.897766 
	C497.607544,378.755524 500.965515,371.464752 500.528992,362.472717 
	C500.141724,354.496246 500.141235,346.470886 500.536499,338.495209 
	C500.912415,330.910339 496.948730,326.232330 490.857971,321.433258 
	C490.857971,323.736572 490.835358,325.168121 490.862366,326.598724 
	C490.933380,330.362030 490.477295,334.033142 485.646545,333.999634 
	C481.029144,333.967590 480.827576,330.403931 480.835449,326.840851 
	C480.875763,308.518433 480.877716,290.195801 480.842072,271.873383 
	C480.826080,263.650848 476.244904,258.256592 469.443817,258.278839 
	C462.859253,258.300385 458.560883,263.285583 458.104980,271.430542 
	C458.067841,272.094940 458.297760,272.985260 457.954498,273.383514 
	C456.741333,274.791077 455.399963,276.986572 453.981110,277.086121 
	C452.287872,277.204956 450.345123,275.636139 448.757019,274.464233 
	C448.124054,273.997192 448.189423,272.623108 447.870422,271.684540 
	C445.978149,266.116913 441.263245,263.102386 435.542206,263.779175 
	C429.996643,264.435242 426.183380,268.703735 425.861755,274.659943 
	C425.790009,275.989044 425.828033,277.324219 425.819244,278.656586 
	C425.797058,282.019684 424.686066,284.745697 420.905426,284.919952 
	C417.411438,285.080963 416.224457,282.757355 415.692596,279.522827 
	C414.466339,272.065369 409.766266,268.274780 403.098083,268.935547 
	C396.970367,269.542755 393.174011,274.338348 393.085571,281.670837 
	C393.033356,286.001007 393.561310,290.416656 392.843201,294.625824 
	C392.504974,296.608307 390.063019,299.208191 388.165222,299.613739 
	C386.844238,299.895996 384.443298,297.172119 383.229370,295.327545 
	C382.030914,293.506378 381.718231,291.102234 380.872314,288.270081 
	C377.412567,284.073944 372.972382,282.714661 367.929657,284.507080 
	C363.027924,286.249420 360.608246,290.123505 360.612061,295.308197 
	C360.630066,319.765656 360.545166,344.225037 360.843292,368.679535 
	C360.966949,378.821289 365.458221,387.400482 373.050690,393.989105 
	C376.442474,396.932465 377.614136,399.998993 377.594971,404.323761 
	C377.462372,434.273956 377.525208,464.224976 377.525330,494.175751 
	C377.525330,496.109161 377.525360,498.042603 377.525360,500.128326 
	C384.098083,500.128326 390.037842,500.128326 396.888306,500.383942 
M120.144997,405.766449 
	C85.698303,409.255707 52.391682,439.101929 43.022118,474.980316 
	C40.893162,483.132629 39.212952,491.374084 40.216431,500.098846 
	C46.369499,500.098846 52.156685,500.098846 58.859001,500.357300 
	C160.493698,500.374969 262.128387,500.393951 363.763092,500.393677 
	C364.870056,500.393677 365.977020,500.141815 367.043427,500.012451 
	C367.043427,468.011597 367.043427,436.315796 367.043427,404.506104 
	C350.865997,404.506104 335.107788,404.506104 319.369019,404.506104 
	C316.697968,443.733521 286.617737,465.089386 258.346222,465.540009 
	C243.869598,465.770752 230.761368,461.533447 219.309662,452.635590 
	C203.660507,440.476410 195.946609,424.118652 194.826324,405.173584 
	C170.941986,405.173584 147.493774,405.173584 123.423782,405.044128 
	C122.856323,405.276489 122.288857,405.508820 121.339806,405.756378 
	C121.339806,405.756378 120.994316,405.919128 120.144997,405.766449 
M205.052841,405.268921 
	C206.243820,431.056366 225.892105,452.609650 250.440384,455.057007 
	C277.680664,457.772736 301.524780,441.888794 307.181763,415.716980 
	C309.595459,404.550018 308.926910,392.716858 309.728455,380.091888 
	C274.146149,396.936279 239.678574,396.809082 205.025101,380.526031 
	C205.025101,389.009735 205.025101,396.663574 205.052841,405.268921 
M91.067963,263.603088 
	C96.022331,259.156158 100.909782,254.631119 105.964951,250.301910 
	C107.906029,248.639526 108.755188,247.169724 108.055344,244.433868 
	C105.633400,234.965958 107.901108,226.358475 113.523651,218.501083 
	C114.268311,217.460449 115.187180,216.216324 115.216385,215.046249 
	C115.379959,208.492050 115.295143,201.931625 115.295143,194.525543 
	C95.332336,207.091202 76.189659,219.140640 56.910984,231.275681 
	C66.577118,244.055939 75.869293,256.341766 85.302948,268.814636 
	C87.328476,266.977539 88.925987,265.528656 91.067963,263.603088 
M142.225708,269.714569 
	C133.736343,267.632202 124.525703,267.703583 117.633537,260.694458 
	C113.003815,270.051392 108.698837,278.751984 104.243553,287.756378 
	C118.028061,293.197235 131.279358,298.427643 144.225830,303.537720 
	C143.580338,292.463318 142.944641,281.557159 142.225708,269.714569 
M129.922272,256.876587 
	C133.878845,257.607117 137.835419,258.337646 141.917984,259.091461 
	C141.917984,244.109146 141.917984,230.222824 141.917984,216.367477 
	C129.913742,215.656067 120.898468,221.436386 118.005249,231.421219 
	C115.078865,241.520508 119.218163,250.777115 129.922272,256.876587 
M371.683899,230.504486 
	C371.683899,239.754944 371.683899,249.005386 371.683899,258.499725 
	C381.275696,259.154114 388.713379,256.387238 393.575714,248.589661 
	C398.320587,240.980453 398.180115,233.088364 393.171692,225.618378 
	C388.176483,218.168030 380.861694,215.639999 371.683838,216.271652 
	C371.683838,220.936600 371.683838,225.222137 371.683899,230.504486 
M371.871185,197.638763 
	C371.871185,200.247955 371.871185,202.857147 371.871185,205.292053 
	C377.820312,206.383316 383.126892,207.356720 388.408783,208.325592 
	C388.408783,203.618118 388.408783,198.924942 388.408783,193.923965 
	C383.627319,193.923965 379.303711,193.739594 375.016022,194.050644 
	C373.912384,194.130707 372.921875,195.770187 371.871185,197.638763 
M135.019760,206.197784 
	C137.262314,206.008896 139.504868,205.820007 142.054550,205.605255 
	C142.054550,202.315628 142.287506,199.481766 141.932205,196.723694 
	C141.802277,195.715134 140.382034,194.239655 139.370499,194.073654 
	C126.144821,191.903397 123.282837,194.925888 125.641541,208.649338 
	C128.506195,207.912567 131.353668,207.180222 135.019760,206.197784 
z"/>
<path fill="#FECDBE" opacity="1.000000" stroke="none" 
	d="
M170.013367,194.044159 
	C171.339798,193.969254 172.666229,193.829071 173.992676,193.828842 
	C234.990982,193.817947 295.989288,193.819275 356.987610,193.819183 
	C358.306580,193.819183 359.625549,193.819183 361.683685,193.819183 
	C361.683685,195.876312 361.683655,197.638580 361.683685,199.400864 
	C361.684052,223.566864 361.635254,247.733093 361.748505,271.898560 
	C361.762268,274.841370 360.972534,276.711395 358.543396,278.531647 
	C352.814636,282.824432 350.531311,288.939911 350.548279,296.003174 
	C350.567871,304.169586 350.739563,312.342865 350.445435,320.498749 
	C350.342712,323.347687 349.663025,326.523163 348.212067,328.924255 
	C324.457184,368.235229 289.642914,385.950714 243.201233,381.585419 
	C241.990829,381.219421 241.414291,381.190491 240.837738,381.161560 
	C240.837738,381.161560 240.906906,381.097382 240.738327,380.835083 
	C222.796326,373.541534 207.729813,362.876465 195.456436,348.082825 
	C178.901077,328.127838 170.555389,305.134644 170.115173,279.468781 
	C169.626923,251.001694 170.009796,222.519669 170.013367,194.044159 
M282.167175,318.573730 
	C284.537659,315.895050 286.448700,312.865753 283.025208,309.956726 
	C279.411346,306.885895 277.085571,309.796875 274.227264,312.174042 
	C270.767120,315.051697 266.695892,317.960358 262.442322,318.966095 
	C252.141434,321.401672 242.659317,319.211304 235.344330,310.821320 
	C233.130386,308.282043 230.531998,307.691528 227.934113,309.846100 
	C225.252533,312.070068 225.657425,314.794525 227.743118,317.309784 
	C228.799744,318.584015 229.942734,319.799561 231.144348,320.938599 
	C241.890884,331.125427 267.260132,335.340393 282.167175,318.573730 
M310.654144,208.418365 
	C314.046112,210.116440 317.568848,211.600967 320.791779,213.575027 
	C323.775299,215.402496 326.473511,215.935150 328.648712,212.865387 
	C330.661957,210.024124 329.423248,207.621567 326.935547,205.528015 
	C314.707520,195.237411 296.910095,195.531464 284.827606,206.241577 
	C282.181915,208.586761 280.443787,211.267181 283.100983,214.378876 
	C285.752106,217.483475 288.629791,216.254623 291.368958,213.931931 
	C296.686188,209.423141 302.777283,207.188141 310.654144,208.418365 
M188.698624,216.085129 
	C190.198959,215.545654 191.931290,215.322159 193.163544,214.417511 
	C204.640259,205.991760 211.348450,205.735870 223.476532,213.627289 
	C226.195892,215.396713 228.829529,215.907715 230.966476,213.175827 
	C233.265579,210.236633 232.085236,207.687531 229.413345,205.468658 
	C216.996521,195.157043 198.839798,195.579544 187.062958,206.513748 
	C183.150406,210.146393 183.383118,212.673111 188.698624,216.085129 
M209.256714,240.014908 
	C214.043747,239.078934 216.604965,236.123108 216.393921,231.297333 
	C216.225113,227.437225 214.039124,224.771790 210.133041,223.901093 
	C205.358170,222.836685 200.895660,225.825226 200.101959,230.505554 
	C199.264008,235.446777 202.450806,239.087204 209.256714,240.014908 
M310.069824,238.851639 
	C313.225128,236.598984 315.101868,233.370651 313.535583,229.842209 
	C312.471008,227.444000 309.924377,225.088974 307.476379,224.070175 
	C304.177826,222.697403 300.299530,224.004028 299.074219,227.425659 
	C298.092621,230.166748 298.056488,234.095215 299.343842,236.601303 
	C301.278748,240.367920 305.296661,241.021347 310.069824,238.851639 
z"/>
<path fill="#67BFDF" opacity="1.000000" stroke="none" 
	d="
M124.045578,405.173584 
	C147.493774,405.173584 170.941986,405.173584 194.826324,405.173584 
	C195.946609,424.118652 203.660507,440.476410 219.309662,452.635590 
	C230.761368,461.533447 243.869598,465.770752 258.346222,465.540009 
	C286.617737,465.089386 316.697968,443.733521 319.369019,404.506104 
	C335.107788,404.506104 350.865997,404.506104 367.043427,404.506104 
	C367.043427,436.315796 367.043427,468.011597 367.043427,500.012451 
	C365.977020,500.141815 364.870056,500.393677 363.763092,500.393677 
	C262.128387,500.393951 160.493698,500.374969 58.419064,499.764221 
	C58.291058,495.370575 58.499527,491.558167 58.931381,487.771271 
	C62.205879,459.057037 75.975731,436.313812 98.909119,419.173096 
	C105.750893,414.059418 113.604385,410.299377 120.994324,405.919128 
	C120.994316,405.919128 121.339806,405.756378 121.842606,405.851501 
	C122.912132,405.688904 123.478851,405.431244 124.045578,405.173584 
z"/>
<path fill="#FECEBF" opacity="1.000000" stroke="none" 
	d="
M381.016968,288.953857 
	C381.718231,291.102234 382.030914,293.506378 383.229370,295.327545 
	C384.443298,297.172119 386.844238,299.895996 388.165222,299.613739 
	C390.063019,299.208191 392.504974,296.608307 392.843201,294.625824 
	C393.561310,290.416656 393.033356,286.001007 393.085571,281.670837 
	C393.174011,274.338348 396.970367,269.542755 403.098083,268.935547 
	C409.766266,268.274780 414.466339,272.065369 415.692596,279.522827 
	C416.224457,282.757355 417.411438,285.080963 420.905426,284.919952 
	C424.686066,284.745697 425.797058,282.019684 425.819244,278.656586 
	C425.828033,277.324219 425.790009,275.989044 425.861755,274.659943 
	C426.183380,268.703735 429.996643,264.435242 435.542206,263.779175 
	C441.263245,263.102386 445.978149,266.116913 447.870422,271.684540 
	C448.189423,272.623108 448.124054,273.997192 448.757019,274.464233 
	C450.345123,275.636139 452.287872,277.204956 453.981110,277.086121 
	C455.399963,276.986572 456.741333,274.791077 457.954498,273.383514 
	C458.297760,272.985260 458.067841,272.094940 458.104980,271.430542 
	C458.560883,263.285583 462.859253,258.300385 469.443817,258.278839 
	C476.244904,258.256592 480.826080,263.650848 480.842072,271.873383 
	C480.877716,290.195801 480.875763,308.518433 480.835449,326.840851 
	C480.827576,330.403931 481.029144,333.967590 485.646545,333.999634 
	C490.477295,334.033142 490.933380,330.362030 490.862366,326.598724 
	C490.835358,325.168121 490.857971,323.736572 490.857971,321.433258 
	C496.948730,326.232330 500.912415,330.910339 500.536499,338.495209 
	C500.141235,346.470886 500.141724,354.496246 500.528992,362.472717 
	C500.965515,371.464752 497.607544,378.755524 491.507965,384.897766 
	C487.767426,388.664459 483.832825,392.369019 479.472534,395.351776 
	C475.383423,398.149078 474.105316,401.409302 474.134918,406.210327 
	C474.316742,435.691803 474.225983,465.174957 474.225983,494.657532 
	C474.225983,496.447540 474.225983,498.237549 474.225983,500.383942 
	C448.103790,500.383942 422.496063,500.383942 396.436707,499.778809 
	C395.987183,468.538116 395.878326,437.901764 396.103851,407.267883 
	C396.140106,402.346558 394.705994,398.898956 391.175873,395.554626 
	C383.792908,388.560181 379.254211,379.749359 379.113464,369.562775 
	C378.766083,344.426453 378.958649,319.281860 379.084595,294.141388 
	C379.093262,292.409027 380.343903,290.682892 381.016968,288.953857 
z"/>
<path fill="#494A47" opacity="1.000000" stroke="none" 
	d="
M201.065796,15.168478 
	C225.307907,15.069240 249.681259,13.371432 273.753021,15.347480 
	C295.233093,17.110773 310.372650,31.017788 319.919342,50.168938 
	C322.680328,55.707661 325.880463,57.970764 332.109955,58.086262 
	C356.838959,58.544746 380.687592,79.308266 386.888336,105.221107 
	C387.388885,107.312943 387.768768,109.451225 387.983826,111.590126 
	C388.430023,116.027824 388.727661,120.480453 389.162048,125.864799 
	C307.385162,125.864799 226.201691,125.864799 144.525040,125.368988 
	C144.338806,113.255043 143.593323,101.493515 145.153168,90.046112 
	C149.548004,57.793221 167.407516,34.637703 195.666840,19.102959 
	C197.602493,18.038881 199.272339,16.491234 201.065796,15.168478 
z"/>
<path fill="#FFFFFF" opacity="1.000000" stroke="none" 
	d="
M144.001617,136.004272 
	C145.329803,135.943268 146.657990,135.829041 147.986176,135.828903 
	C226.642838,135.820374 305.299500,135.821259 383.956177,135.821259 
	C385.278473,135.821259 386.600800,135.821259 388.298401,135.821259 
	C388.298401,151.771744 388.298401,167.477234 388.298401,183.799927 
	C307.187347,183.799927 226.101746,183.799927 144.529572,183.278503 
	C144.029221,167.172821 144.015411,151.588531 144.001617,136.004272 
z"/>
<path fill="#FEAF9D" opacity="1.000000" stroke="none" 
	d="
M205.038971,404.793152 
	C205.025101,396.663574 205.025101,389.009735 205.025101,380.526031 
	C239.678574,396.809082 274.146149,396.936279 309.728455,380.091888 
	C308.926910,392.716858 309.595459,404.550018 307.181763,415.716980 
	C301.524780,441.888794 277.680664,457.772736 250.440384,455.057007 
	C225.892105,452.609650 206.243820,431.056366 205.038971,404.793152 
z"/>
<path fill="#FEB09E" opacity="1.000000" stroke="none" 
	d="
M380.944641,288.611969 
	C380.343903,290.682892 379.093262,292.409027 379.084595,294.141388 
	C378.958649,319.281860 378.766083,344.426453 379.113464,369.562775 
	C379.254211,379.749359 383.792908,388.560181 391.175873,395.554626 
	C394.705994,398.898956 396.140106,402.346558 396.103851,407.267883 
	C395.878326,437.901764 395.987183,468.538116 395.981384,499.651001 
	C390.037842,500.128326 384.098083,500.128326 377.525360,500.128326 
	C377.525360,498.042603 377.525330,496.109161 377.525330,494.175751 
	C377.525208,464.224976 377.462372,434.273956 377.594971,404.323761 
	C377.614136,399.998993 376.442474,396.932465 373.050690,393.989105 
	C365.458221,387.400482 360.966949,378.821289 360.843292,368.679535 
	C360.545166,344.225037 360.630066,319.765656 360.612061,295.308197 
	C360.608246,290.123505 363.027924,286.249420 367.929657,284.507080 
	C372.972382,282.714661 377.412567,284.073944 380.944641,288.611969 
z"/>
<path fill="#FBAD9C" opacity="1.000000" stroke="none" 
	d="
M169.553345,193.943878 
	C170.009796,222.519669 169.626923,251.001694 170.115173,279.468781 
	C170.555389,305.134644 178.901077,328.127838 195.456436,348.082825 
	C207.729813,362.876465 222.796326,373.541534 240.749680,380.880859 
	C216.289337,377.919891 196.009735,366.327484 179.456131,348.190125 
	C161.946152,329.004883 152.857300,306.131744 152.458725,280.192963 
	C152.031647,252.399506 152.329544,224.594864 152.325241,196.795090 
	C152.325119,195.990952 152.485489,195.186768 152.628357,193.843613 
	C158.222458,193.843613 163.657883,193.843613 169.553345,193.943878 
z"/>
<path fill="#CBCBC4" opacity="1.000000" stroke="none" 
	d="
M90.795731,263.841431 
	C88.925987,265.528656 87.328476,266.977539 85.302948,268.814636 
	C75.869293,256.341766 66.577118,244.055939 56.910984,231.275681 
	C76.189659,219.140640 95.332336,207.091202 115.295143,194.525543 
	C115.295143,201.931625 115.379959,208.492050 115.216385,215.046249 
	C115.187180,216.216324 114.268311,217.460449 113.523651,218.501083 
	C107.901108,226.358475 105.633400,234.965958 108.055344,244.433868 
	C108.755188,247.169724 107.906029,248.639526 105.964951,250.301910 
	C100.909782,254.631119 96.022331,259.156158 90.795731,263.841431 
z"/>
<path fill="#333331" opacity="1.000000" stroke="none" 
	d="
M200.659256,15.115291 
	C199.272339,16.491234 197.602493,18.038881 195.666840,19.102959 
	C167.407516,34.637703 149.548004,57.793221 145.153168,90.046112 
	C143.593323,101.493515 144.338806,113.255043 144.065765,125.317657 
	C139.108246,125.823898 134.115616,125.838150 129.125931,125.966766 
	C126.501312,126.034424 125.091553,125.143471 125.053535,122.273689 
	C124.774590,101.216431 125.499771,80.377235 136.275528,61.338478 
	C149.766037,37.503284 169.517624,22.020559 196.379318,15.911595 
	C197.668182,15.618480 198.961487,15.344823 200.659256,15.115291 
z"/>
<path fill="#3281A0" opacity="1.000000" stroke="none" 
	d="
M120.569656,405.842804 
	C113.604385,410.299377 105.750893,414.059418 98.909119,419.173096 
	C75.975731,436.313812 62.205879,459.057037 58.931381,487.771271 
	C58.499527,491.558167 58.291058,495.370575 57.961498,499.635010 
	C52.156685,500.098846 46.369499,500.098846 40.216431,500.098846 
	C39.212952,491.374084 40.893162,483.132629 43.022118,474.980316 
	C52.391682,439.101929 85.698303,409.255707 120.569656,405.842804 
z"/>
<path fill="#CACAC3" opacity="1.000000" stroke="none" 
	d="
M142.267334,270.182800 
	C142.944641,281.557159 143.580338,292.463318 144.225830,303.537720 
	C131.279358,298.427643 118.028061,293.197235 104.243553,287.756378 
	C108.698837,278.751984 113.003815,270.051392 117.633537,260.694458 
	C124.525703,267.703583 133.736343,267.632202 142.267334,270.182800 
z"/>
<path fill="#C4C4BF" opacity="1.000000" stroke="none" 
	d="
M143.542358,135.903915 
	C144.015411,151.588531 144.029221,167.172821 144.073181,183.202744 
	C138.015015,183.648392 131.926666,183.648392 125.565773,183.648392 
	C125.565773,167.657883 125.565773,151.982071 125.565773,135.803574 
	C131.551147,135.803574 137.317123,135.803574 143.542358,135.903915 
z"/>
<path fill="#FCAE9C" opacity="1.000000" stroke="none" 
	d="
M129.578705,256.705444 
	C119.218163,250.777115 115.078865,241.520508 118.005249,231.421219 
	C120.898468,221.436386 129.913742,215.656067 141.917984,216.367477 
	C141.917984,230.222824 141.917984,244.109146 141.917984,259.091461 
	C137.835419,258.337646 133.878845,257.607117 129.578705,256.705444 
z"/>
<path fill="#FCAE9C" opacity="1.000000" stroke="none" 
	d="
M371.683868,230.006073 
	C371.683838,225.222137 371.683838,220.936600 371.683838,216.271652 
	C380.861694,215.639999 388.176483,218.168030 393.171692,225.618378 
	C398.180115,233.088364 398.320587,240.980453 393.575714,248.589661 
	C388.713379,256.387238 381.275696,259.154114 371.683899,258.499725 
	C371.683899,249.005386 371.683899,239.754944 371.683868,230.006073 
z"/>
<path fill="#464745" opacity="1.000000" stroke="none" 
	d="
M371.875305,197.166046 
	C372.921875,195.770187 373.912384,194.130707 375.016022,194.050644 
	C379.303711,193.739594 383.627319,193.923965 388.408783,193.923965 
	C388.408783,198.924942 388.408783,203.618118 388.408783,208.325592 
	C383.126892,207.356720 377.820312,206.383316 371.871185,205.292053 
	C371.871185,202.857147 371.871185,200.247955 371.875305,197.166046 
z"/>
<path fill="#31312F" opacity="1.000000" stroke="none" 
	d="
M134.610443,206.322830 
	C131.353668,207.180222 128.506195,207.912567 125.641541,208.649338 
	C123.282837,194.925888 126.144821,191.903397 139.370499,194.073654 
	C140.382034,194.239655 141.802277,195.715134 141.932205,196.723694 
	C142.287506,199.481766 142.054550,202.315628 142.054550,205.605255 
	C139.504868,205.820007 137.262314,206.008896 134.610443,206.322830 
z"/>
<path fill="#FBAD9C" opacity="1.000000" stroke="none" 
	d="
M241.045120,381.370300 
	C241.414291,381.190491 241.990829,381.219421 242.773087,381.463379 
	C242.403366,381.645264 241.827927,381.612152 241.045120,381.370300 
z"/>
<path fill="#3281A0" opacity="1.000000" stroke="none" 
	d="
M123.734680,405.108856 
	C123.478851,405.431244 122.912132,405.688904 122.033401,405.843872 
	C122.288857,405.508820 122.856323,405.276489 123.734680,405.108856 
z"/>
<path fill="#070505" opacity="1.000000" stroke="none" 
	d="
M281.931732,318.848572 
	C267.260132,335.340393 241.890884,331.125427 231.144348,320.938599 
	C229.942734,319.799561 228.799744,318.584015 227.743118,317.309784 
	C225.657425,314.794525 225.252533,312.070068 227.934113,309.846100 
	C230.531998,307.691528 233.130386,308.282043 235.344330,310.821320 
	C242.659317,319.211304 252.141434,321.401672 262.442322,318.966095 
	C266.695892,317.960358 270.767120,315.051697 274.227264,312.174042 
	C277.085571,309.796875 279.411346,306.885895 283.025208,309.956726 
	C286.448700,312.865753 284.537659,315.895050 281.931732,318.848572 
z"/>
<path fill="#070605" opacity="1.000000" stroke="none" 
	d="
M310.247864,208.312866 
	C302.777283,207.188141 296.686188,209.423141 291.368958,213.931931 
	C288.629791,216.254623 285.752106,217.483475 283.100983,214.378876 
	C280.443787,211.267181 282.181915,208.586761 284.827606,206.241577 
	C296.910095,195.531464 314.707520,195.237411 326.935547,205.528015 
	C329.423248,207.621567 330.661957,210.024124 328.648712,212.865387 
	C326.473511,215.935150 323.775299,215.402496 320.791779,213.575027 
	C317.568848,211.600967 314.046112,210.116440 310.247864,208.312866 
z"/>
<path fill="#060505" opacity="1.000000" stroke="none" 
	d="
M188.316437,216.029266 
	C183.383118,212.673111 183.150406,210.146393 187.062958,206.513748 
	C198.839798,195.579544 216.996521,195.157043 229.413345,205.468658 
	C232.085236,207.687531 233.265579,210.236633 230.966476,213.175827 
	C228.829529,215.907715 226.195892,215.396713 223.476532,213.627289 
	C211.348450,205.735870 204.640259,205.991760 193.163544,214.417511 
	C191.931290,215.322159 190.198959,215.545654 188.316437,216.029266 
z"/>
<path fill="#080606" opacity="1.000000" stroke="none" 
	d="
M208.855927,240.031326 
	C202.450806,239.087204 199.264008,235.446777 200.101959,230.505554 
	C200.895660,225.825226 205.358170,222.836685 210.133041,223.901093 
	C214.039124,224.771790 216.225113,227.437225 216.393921,231.297333 
	C216.604965,236.123108 214.043747,239.078934 208.855927,240.031326 
z"/>
<path fill="#070605" opacity="1.000000" stroke="none" 
	d="
M309.708374,239.013153 
	C305.296661,241.021347 301.278748,240.367920 299.343842,236.601303 
	C298.056488,234.095215 298.092621,230.166748 299.074219,227.425659 
	C300.299530,224.004028 304.177826,222.697403 307.476379,224.070175 
	C309.924377,225.088974 312.471008,227.444000 313.535583,229.842209 
	C315.101868,233.370651 313.225128,236.598984 309.708374,239.013153 
z"/>
</svg>