<svg version="1.1" id="Layer_1" xmlns="http://www.w3.org/2000/svg" xmlns:xlink="http://www.w3.org/1999/xlink" x="0px" y="0px"
	 width="100%" viewBox="0 0 512 512" enable-background="new 0 0 512 512" xml:space="preserve">
<path fill="#000000" opacity="1.000000" stroke="none" 
	d="
M280.000000,513.000000 
	C186.689316,513.000000 93.878632,513.000000 1.033972,513.000000 
	C1.033972,342.397614 1.033972,171.795242 1.033972,1.096426 
	C171.560699,1.096426 342.121490,1.096426 512.841125,1.096426 
	C512.841125,171.666550 512.841125,342.333252 512.841125,513.000000 
	C435.461884,513.000000 357.980927,513.000000 280.000000,513.000000 
M232.577576,485.551331 
	C232.577576,485.551331 232.611435,485.419800 233.021576,485.015778 
	C233.351288,484.343750 233.681015,483.671722 233.996902,483.000275 
	C233.996902,483.000275 234.002670,483.013947 234.583008,482.665283 
	C259.515198,443.856445 271.962555,401.358368 271.993988,355.260925 
	C272.051208,271.330933 272.012054,187.400864 272.005188,103.470840 
	C272.005066,101.975670 271.905396,100.480507 272.032135,98.254066 
	C273.814270,91.364395 276.657349,89.030701 283.533905,88.977257 
	C290.047180,88.926643 296.561127,88.966377 303.946960,88.966377 
	C287.894623,68.744911 272.605713,49.485195 256.982452,29.804230 
	C241.324158,49.549660 226.015060,68.854782 210.066132,88.966736 
	C217.728806,88.966736 224.181656,88.915482 230.633316,88.980118 
	C238.151001,89.055435 241.975800,92.842697 241.976669,100.430893 
	C241.986618,186.585144 242.310715,272.741486 241.798904,358.892792 
	C241.523819,405.198212 226.083725,446.574860 197.433517,482.986237 
	C196.668060,483.959045 196.028091,485.030640 195.135605,486.341034 
	C207.427429,486.341034 219.189178,486.341034 231.384995,486.579346 
	C231.743454,486.259552 232.101913,485.939758 232.577576,485.551331 
M393.784515,168.852463 
	C400.758881,166.713974 404.210480,168.020798 407.923187,174.298386 
	C411.157776,179.767578 414.336151,185.270035 418.019836,191.580948 
	C427.425262,167.773315 436.416962,145.012878 445.695343,121.526817 
	C420.744019,117.836342 396.491241,114.249199 371.121338,110.496819 
	C374.480408,116.313622 377.127167,120.891571 379.768768,125.472519 
	C385.582672,135.554810 384.191864,139.900177 373.679108,145.061707 
	C342.599060,160.321320 316.123627,181.392014 294.313477,208.280182 
	C293.154999,209.708405 292.115204,211.745697 292.100800,213.508316 
	C291.982117,227.985474 292.119659,242.464737 292.016663,257.810150 
	C292.016663,260.477966 292.016663,263.145813 292.016663,265.813629 
	C293.287354,264.942627 293.754028,264.082336 294.199738,263.211304 
	C308.212128,235.825409 326.995392,212.206573 351.843475,194.075150 
	C364.785858,184.631241 379.220673,177.232635 393.784515,168.852463 
M221.969635,255.974350 
	C221.979080,242.310410 222.112991,228.644348 221.880768,214.984528 
	C221.840027,212.588181 220.821228,209.766098 219.312378,207.903564 
	C197.275635,180.700897 170.373047,159.591873 138.884872,144.312744 
	C130.260300,140.127792 128.749466,135.103973 133.572906,126.659836 
	C136.478943,121.572372 139.375626,116.479553 142.780685,110.504463 
	C117.368462,114.283951 93.127396,117.889252 68.306419,121.580811 
	C77.617752,145.132034 86.619812,167.901001 95.981796,191.580338 
	C99.558662,185.469284 102.624428,180.219238 105.702126,174.976212 
	C109.871651,167.873138 113.004662,166.628662 121.491806,169.366898 
	C166.058456,189.926849 199.137619,222.434601 221.825989,267.075287 
	C221.825989,262.826080 221.825989,259.856873 221.969635,255.974350 
M437.071625,333.188446 
	C435.058960,328.139435 437.066071,324.159058 440.772308,320.397095 
	C437.496033,316.693634 434.300842,313.081787 431.715546,310.159363 
	C427.745789,311.612305 424.842010,312.675110 421.242279,313.388947 
	C418.877686,312.232056 416.333099,311.340057 414.177734,309.875305 
	C400.029724,300.260956 384.507141,294.987000 367.357544,294.884277 
	C349.694672,294.778503 332.030792,294.829987 314.367371,294.814240 
	C310.391479,294.810699 306.415558,294.813721 301.860443,294.813721 
	C299.341187,304.794800 296.891449,314.500427 294.285767,324.823883 
	C297.254395,324.823883 299.067413,324.822266 300.880463,324.824127 
	C322.376556,324.846008 343.878571,324.558960 365.367279,324.968597 
	C392.585297,325.487457 416.992859,347.338928 419.871216,374.245544 
	C421.211914,386.778259 420.690338,399.519196 420.836304,412.167816 
	C420.945648,421.642456 417.412537,425.012817 407.835144,425.029663 
	C401.809235,425.040253 395.783325,425.031616 388.850616,425.031616 
	C404.891876,445.242401 420.174469,464.497314 435.817322,484.206116 
	C451.454468,464.497314 466.792023,445.166046 482.767181,425.031158 
	C475.330627,425.031158 469.053772,425.062988 462.777405,425.023254 
	C454.472961,424.970703 450.937714,421.475037 450.891296,413.144196 
	C450.830048,402.146362 450.987213,391.146515 450.845215,380.150146 
	C450.630096,363.489014 446.504456,347.938904 437.071625,333.188446 
M87.244476,472.763428 
	C99.695343,457.078247 112.146210,441.393036 125.133972,425.031494 
	C117.794525,425.031494 111.635765,425.050812 105.477180,425.026855 
	C96.916008,424.993530 93.172134,421.408051 93.114258,412.990417 
	C93.043228,402.660583 92.968681,392.327637 93.136566,381.999939 
	C93.646286,350.643921 118.840538,325.358551 150.268341,324.924469 
	C171.258286,324.634552 192.255066,324.839966 213.248795,324.824097 
	C215.054718,324.822723 216.860641,324.823883 219.815079,324.823883 
	C217.075928,314.342041 214.514359,304.539673 212.011475,294.961945 
	C188.166199,294.961945 165.329468,294.405640 142.529617,295.085663 
	C103.349693,296.254242 67.744278,329.659332 64.098320,368.732239 
	C62.756317,383.114227 63.312298,397.677734 63.108402,412.159943 
	C62.972038,421.845703 59.896839,425.007568 50.197468,425.029083 
	C44.179325,425.042450 38.161133,425.031586 31.209906,425.031586 
	C46.913044,444.809143 61.818741,463.585815 76.736870,482.352600 
	C77.135727,482.854370 77.669258,483.249115 78.355751,483.897552 
	C81.263336,480.280670 84.050522,476.813538 87.244476,472.763428 
M298.322723,456.086731 
	C293.203369,445.409821 288.084045,434.732910 282.954071,424.033813 
	C282.655273,424.832092 282.246490,425.876831 281.871490,426.933533 
	C278.713593,435.832001 276.384491,445.147980 272.163605,453.509186 
	C268.378021,461.007996 269.848389,466.434662 273.381104,473.479553 
	C278.559540,483.806396 285.118317,488.610016 296.917206,486.876129 
	C303.969269,485.839844 311.298004,486.686005 318.445953,486.686005 
	C311.651642,476.351410 305.191071,466.524506 298.322723,456.086731 
z"/>
<path fill="#85C9FE" opacity="1.000000" stroke="none" 
	d="
M230.950928,486.341034 
	C219.189178,486.341034 207.427429,486.341034 195.135605,486.341034 
	C196.028091,485.030640 196.668060,483.959045 197.433517,482.986237 
	C226.083725,446.574860 241.523819,405.198212 241.798904,358.892792 
	C242.310715,272.741486 241.986618,186.585144 241.976669,100.430893 
	C241.975800,92.842697 238.151001,89.055435 230.633316,88.980118 
	C224.181656,88.915482 217.728806,88.966736 210.066132,88.966736 
	C226.015060,68.854782 241.324158,49.549660 256.982452,29.804230 
	C272.605713,49.485195 287.894623,68.744911 303.946960,88.966377 
	C296.561127,88.966377 290.047180,88.926643 283.533905,88.977257 
	C276.657349,89.030701 273.814270,91.364395 271.537170,98.631844 
	C266.513641,99.249214 268.079712,102.762131 268.077728,105.032936 
	C268.003662,190.848511 268.068237,276.664276 267.927002,362.479675 
	C267.912567,371.242920 267.050842,380.041718 266.031952,388.759674 
	C262.529724,418.726685 252.552658,446.618042 238.457672,473.154541 
	C236.769394,476.333038 235.478027,479.722351 234.002670,483.013947 
	C234.002670,483.013947 233.996902,483.000275 233.671753,483.082306 
	C233.101547,483.916168 232.856491,484.667969 232.611435,485.419800 
	C232.611435,485.419800 232.577576,485.551331 232.286331,485.502991 
	C231.647034,485.750122 231.298981,486.045593 230.950928,486.341034 
z"/>
<path fill="#FD6A83" opacity="1.000000" stroke="none" 
	d="
M87.041092,473.054932 
	C84.050522,476.813538 81.263336,480.280670 78.355751,483.897552 
	C77.669258,483.249115 77.135727,482.854370 76.736870,482.352600 
	C61.818741,463.585815 46.913044,444.809143 31.209906,425.031586 
	C38.161133,425.031586 44.179325,425.042450 50.197468,425.029083 
	C59.896839,425.007568 62.972038,421.845703 63.108402,412.159943 
	C63.312298,397.677734 62.756317,383.114227 64.098320,368.732239 
	C67.744278,329.659332 103.349693,296.254242 142.529617,295.085663 
	C165.329468,294.405640 188.166199,294.961945 212.011475,294.961945 
	C214.514359,304.539673 217.075928,314.342041 219.815079,324.823883 
	C216.860641,324.823883 215.054718,324.822723 213.248795,324.824097 
	C192.255066,324.839966 171.258286,324.634552 150.268341,324.924469 
	C118.840538,325.358551 93.646286,350.643921 93.136566,381.999939 
	C92.968681,392.327637 93.043228,402.660583 93.114258,412.990417 
	C93.172134,421.408051 96.916008,424.993530 105.477180,425.026855 
	C111.635765,425.050812 117.794525,425.031494 125.133972,425.031494 
	C112.146210,441.393036 99.695343,457.078247 87.041092,473.054932 
z"/>
<path fill="#FD6A83" opacity="1.000000" stroke="none" 
	d="
M437.156281,333.960907 
	C446.504456,347.938904 450.630096,363.489014 450.845215,380.150146 
	C450.987213,391.146515 450.830048,402.146362 450.891296,413.144196 
	C450.937714,421.475037 454.472961,424.970703 462.777405,425.023254 
	C469.053772,425.062988 475.330627,425.031158 482.767181,425.031158 
	C466.792023,445.166046 451.454468,464.497314 435.817322,484.206116 
	C420.174469,464.497314 404.891876,445.242401 388.850616,425.031616 
	C395.783325,425.031616 401.809235,425.040253 407.835144,425.029663 
	C417.412537,425.012817 420.945648,421.642456 420.836304,412.167816 
	C420.690338,399.519196 421.211914,386.778259 419.871216,374.245544 
	C416.992859,347.338928 392.585297,325.487457 365.367279,324.968597 
	C343.878571,324.558960 322.376556,324.846008 300.880463,324.824127 
	C299.067413,324.822266 297.254395,324.823883 294.285767,324.823883 
	C296.891449,314.500427 299.341187,304.794800 301.860443,294.813721 
	C306.415558,294.813721 310.391479,294.810699 314.367371,294.814240 
	C332.030792,294.829987 349.694672,294.778503 367.357544,294.884277 
	C384.507141,294.987000 400.029724,300.260956 414.177734,309.875305 
	C416.333099,311.340057 418.877686,312.232056 421.700195,313.847168 
	C423.507477,315.982697 424.899902,317.627411 426.197937,319.343536 
	C429.871429,324.200317 433.506256,329.086365 437.156281,333.960907 
z"/>
<path fill="#FDE984" opacity="1.000000" stroke="none" 
	d="
M120.949471,168.899658 
	C113.004662,166.628662 109.871651,167.873138 105.702126,174.976212 
	C102.624428,180.219238 99.558662,185.469284 95.981796,191.580338 
	C86.619812,167.901001 77.617752,145.132034 68.306419,121.580811 
	C93.127396,117.889252 117.368462,114.283951 142.780685,110.504463 
	C139.375626,116.479553 136.478943,121.572372 133.572906,126.659836 
	C128.749466,135.103973 130.260300,140.127792 138.884872,144.312744 
	C170.373047,159.591873 197.275635,180.700897 219.312378,207.903564 
	C220.821228,209.766098 221.840027,212.588181 221.880768,214.984528 
	C222.112991,228.644348 221.979080,242.310410 221.664276,256.203888 
	C212.896927,239.923172 202.307831,224.853806 189.658859,211.341766 
	C171.862717,192.331345 150.907303,177.596268 127.326401,166.514923 
	C123.824623,164.869324 122.122391,165.544373 120.949471,168.899658 
z"/>
<path fill="#ABFDAB" opacity="1.000000" stroke="none" 
	d="
M292.179474,256.943359 
	C292.119659,242.464737 291.982117,227.985474 292.100800,213.508316 
	C292.115204,211.745697 293.154999,209.708405 294.313477,208.280182 
	C316.123627,181.392014 342.599060,160.321320 373.679108,145.061707 
	C384.191864,139.900177 385.582672,135.554810 379.768768,125.472519 
	C377.127167,120.891571 374.480408,116.313622 371.121338,110.496819 
	C396.491241,114.249199 420.744019,117.836342 445.695343,121.526817 
	C436.416962,145.012878 427.425262,167.773315 418.019836,191.580948 
	C414.336151,185.270035 411.157776,179.767578 407.923187,174.298386 
	C404.210480,168.020798 400.758881,166.713974 393.241577,168.580322 
	C391.555298,165.200455 389.730408,164.917053 386.913513,166.484055 
	C380.672760,169.955597 374.161560,172.952499 367.999634,176.552063 
	C347.003204,188.817368 328.516510,204.143616 313.983582,223.702194 
	C306.093689,234.320526 299.408234,245.833786 292.179474,256.943359 
z"/>
<path fill="#A9F9A9" opacity="1.000000" stroke="none" 
	d="
M298.526611,456.392181 
	C305.191071,466.524506 311.651642,476.351410 318.445953,486.686005 
	C311.298004,486.686005 303.969269,485.839844 296.917206,486.876129 
	C285.118317,488.610016 278.559540,483.806396 273.381104,473.479553 
	C269.848389,466.434662 268.378021,461.007996 272.163605,453.509186 
	C276.384491,445.147980 278.713593,435.832001 281.871490,426.933533 
	C282.246490,425.876831 282.655273,424.832092 282.954071,424.033813 
	C288.084045,434.732910 293.203369,445.409821 298.526611,456.392181 
z"/>
<path fill="#6DBCF9" opacity="1.000000" stroke="none" 
	d="
M234.292847,482.839600 
	C235.478027,479.722351 236.769394,476.333038 238.457672,473.154541 
	C252.552658,446.618042 262.529724,418.726685 266.031952,388.759674 
	C267.050842,380.041718 267.912567,371.242920 267.927002,362.479675 
	C268.068237,276.664276 268.003662,190.848511 268.077728,105.032936 
	C268.079712,102.762131 266.513641,99.249214 271.447205,98.997482 
	C271.905396,100.480507 272.005066,101.975670 272.005188,103.470840 
	C272.012054,187.400864 272.051208,271.330933 271.993988,355.260925 
	C271.962555,401.358368 259.515198,443.856445 234.292847,482.839600 
z"/>
<path fill="#8DE98D" opacity="1.000000" stroke="none" 
	d="
M292.098083,257.376770 
	C299.408234,245.833786 306.093689,234.320526 313.983582,223.702194 
	C328.516510,204.143616 347.003204,188.817368 367.999634,176.552063 
	C374.161560,172.952499 380.672760,169.955597 386.913513,166.484055 
	C389.730408,164.917053 391.555298,165.200455 392.839996,168.609161 
	C379.220673,177.232635 364.785858,184.631241 351.843475,194.075150 
	C326.995392,212.206573 308.212128,235.825409 294.199738,263.211304 
	C293.754028,264.082336 293.287354,264.942627 292.016663,265.813629 
	C292.016663,263.145813 292.016663,260.477966 292.098083,257.376770 
z"/>
<path fill="#F7D736" opacity="1.000000" stroke="none" 
	d="
M121.220642,169.133270 
	C122.122391,165.544373 123.824623,164.869324 127.326401,166.514923 
	C150.907303,177.596268 171.862717,192.331345 189.658859,211.341766 
	C202.307831,224.853806 212.896927,239.923172 221.592438,256.660522 
	C221.825989,259.856873 221.825989,262.826080 221.825989,267.075287 
	C199.137619,222.434601 166.058456,189.926849 121.220642,169.133270 
z"/>
<path fill="#F9536F" opacity="1.000000" stroke="none" 
	d="
M437.113953,333.574677 
	C433.506256,329.086365 429.871429,324.200317 426.197937,319.343536 
	C424.899902,317.627411 423.507477,315.982697 422.048157,314.021667 
	C424.842010,312.675110 427.745789,311.612305 431.715546,310.159363 
	C434.300842,313.081787 437.496033,316.693634 440.772308,320.397095 
	C437.066071,324.159058 435.058960,328.139435 437.113953,333.574677 
z"/>
<path fill="#6DBCF9" opacity="1.000000" stroke="none" 
	d="
M232.816498,485.217773 
	C232.856491,484.667969 233.101547,483.916168 233.678680,483.082001 
	C233.681015,483.671722 233.351288,484.343750 232.816498,485.217773 
z"/>
<path fill="#6DBCF9" opacity="1.000000" stroke="none" 
	d="
M231.167969,486.460205 
	C231.298981,486.045593 231.647034,485.750122 232.227722,485.537323 
	C232.101913,485.939758 231.743454,486.259552 231.167969,486.460205 
z"/>
</svg>