<svg version="1.1" id="Layer_1" xmlns="http://www.w3.org/2000/svg" xmlns:xlink="http://www.w3.org/1999/xlink" x="0px" y="0px"
	 width="100%" viewBox="0 0 512 512" enable-background="new 0 0 512 512" xml:space="preserve">
<path fill="#000100" opacity="1.000000" stroke="none" 
	d="
M306.000000,513.000000 
	C204.024765,513.000000 102.549522,513.000000 1.037143,513.000000 
	C1.037143,342.399750 1.037143,171.799469 1.037143,1.099597 
	C171.558578,1.099597 342.117249,1.099597 512.837952,1.099597 
	C512.837952,171.666550 512.837952,342.333252 512.837952,513.000000 
	C444.132782,513.000000 375.316376,513.000000 306.000000,513.000000 
M216.248993,355.404358 
	C211.754272,355.358368 207.258286,355.362061 202.765350,355.246582 
	C200.328781,355.183929 199.025681,355.961273 199.122330,358.666199 
	C199.264969,362.658508 198.908020,366.682373 199.247787,370.651367 
	C200.256943,382.439819 211.619110,389.950073 222.696793,385.875061 
	C234.541138,381.228973 235.539673,371.884125 233.454453,355.685822 
	C228.044266,355.685822 222.603043,355.685822 216.248993,355.404358 
M84.288399,241.555923 
	C73.381676,239.367935 66.388412,242.928680 61.301777,253.563812 
	C58.061333,260.338928 58.040554,264.745972 61.876156,270.832397 
	C69.470497,282.883179 69.134315,283.095367 83.517349,282.136444 
	C83.680717,282.125549 83.840561,282.061890 84.876930,282.225281 
	C90.245689,283.210815 93.863052,281.553314 96.113136,276.160400 
	C98.199020,271.161072 103.301773,266.545746 103.273079,261.784271 
	C103.244270,257.002655 98.173500,252.404526 95.949684,247.440460 
	C93.675804,242.364639 90.292831,240.563629 84.288399,241.555923 
M221.758835,225.068100 
	C233.107010,221.994827 240.369736,212.539459 239.632065,201.798889 
	C238.883682,190.902527 231.341019,182.387253 220.403687,180.348770 
	C218.915970,180.251556 217.415314,179.977890 215.942642,180.085922 
	C206.727844,180.761932 199.843018,185.144272 196.041367,193.607666 
	C192.139740,202.293655 193.393707,210.660187 199.623459,217.757477 
	C205.195053,224.104950 212.312988,227.190689 221.758835,225.068100 
M424.316742,176.597916 
	C418.831909,176.578232 413.340057,176.399780 407.866791,176.641464 
	C406.345398,176.708664 404.230499,177.623260 403.492889,178.826492 
	C398.811768,186.462463 394.373169,194.251266 390.049744,202.097214 
	C389.489044,203.114731 389.584686,205.008606 390.166504,206.058823 
	C394.427032,213.749588 398.811615,221.375702 403.369873,228.893188 
	C404.068237,230.044907 405.844482,231.182190 407.151184,231.216324 
	C413.117310,231.372238 419.093750,231.132339 425.953125,231.268356 
	C428.605347,231.288956 431.290894,231.565369 433.896210,231.225861 
	C435.268036,231.047089 437.020691,230.108551 437.710297,228.972290 
	C442.259033,221.477081 446.645508,213.878769 450.864838,206.193268 
	C451.498932,205.038223 451.534698,202.949066 450.908844,201.805786 
	C446.699066,194.116104 442.313446,186.518188 437.772980,179.018799 
	C437.074219,177.864700 435.336212,176.807495 433.990601,176.686478 
	C431.052643,176.422241 428.057953,176.789124 424.316742,176.597916 
M62.326958,83.587914 
	C57.507931,83.567039 52.674232,83.326591 47.878010,83.647057 
	C46.248642,83.755936 44.061085,84.880547 43.242020,86.221237 
	C38.054531,94.712379 33.094376,103.347557 28.295660,112.065369 
	C27.599228,113.330566 27.562111,115.626991 28.250883,116.879112 
	C33.127056,125.743492 38.219418,134.491379 43.398842,143.183456 
	C44.042522,144.263672 45.589272,145.448242 46.741772,145.473373 
	C52.201401,145.592331 57.669437,145.325592 63.993477,145.483353 
	C68.489853,145.506516 72.998840,145.727753 77.475571,145.442581 
	C78.988297,145.346207 81.042839,144.344543 81.787575,143.113846 
	C87.036240,134.440262 92.077675,125.637611 96.982483,116.764076 
	C97.619408,115.611786 97.651054,113.511131 97.021027,112.369751 
	C92.121567,103.493599 87.059998,94.703690 81.849281,86.006485 
	C81.156776,84.850624 79.366074,83.729874 78.045845,83.683754 
	C73.070946,83.509964 68.080299,83.787018 62.326958,83.587914 
M197.934937,340.384399 
	C219.491913,340.384399 241.048889,340.384399 262.674255,340.384399 
	C262.674255,328.496185 262.674255,316.994690 262.674255,305.482300 
	C240.549332,305.482300 218.806107,305.482300 196.139999,305.267731 
	C187.723343,305.267731 179.306686,305.267731 170.829224,305.267731 
	C170.829224,317.329254 170.829224,328.720978 170.829224,340.142517 
	C179.797501,340.142517 188.412506,340.142517 197.934937,340.384399 
M80.315231,452.404419 
	C96.950470,448.385498 108.726105,438.422729 115.928795,423.023346 
	C119.904350,414.523590 119.790352,414.470276 128.247070,411.544739 
	C128.247070,405.434357 128.247070,399.154175 128.247070,392.475922 
	C121.267593,393.065704 119.223114,388.915588 117.261292,383.859497 
	C110.257225,365.808441 97.437317,354.338623 77.480446,350.226135 
	C41.675995,343.680939 10.253821,375.473022 16.901846,411.436951 
	C22.179735,439.988861 52.031342,459.754150 80.315231,452.404419 
M355.396545,44.102619 
	C354.235168,44.003468 353.074554,43.894783 351.912323,43.806572 
	C327.367371,41.943523 304.978546,55.587135 295.771698,78.015923 
	C286.505341,100.589691 292.529388,126.052078 311.457245,141.851593 
	C324.010681,152.330261 338.516449,157.082764 355.855621,154.178894 
	C378.274506,150.381683 393.006348,137.461548 400.292664,116.133156 
	C402.137634,110.732597 403.791809,105.926102 411.322235,106.399979 
	C410.903412,99.347702 410.519897,92.890137 410.143585,86.554260 
	C402.582001,86.009048 401.822968,85.328644 399.119965,78.918823 
	C391.009399,59.685661 376.818817,47.961014 355.396545,44.102619 
M209.188461,286.076080 
	C209.188461,270.779602 209.188461,255.483124 209.188461,240.349365 
	C186.832474,231.536957 176.179108,216.033737 179.386520,197.407639 
	C182.523193,179.192413 197.046036,165.973923 214.875214,165.106354 
	C233.053604,164.221771 249.203613,176.239365 253.543350,194.097397 
	C255.569962,202.436981 254.797913,210.620529 251.190201,218.483368 
	C245.822891,230.181122 236.387009,236.926880 224.530167,240.166107 
	C224.530167,257.021545 224.530167,273.458313 224.530167,290.250763 
	C231.484863,290.250763 238.145294,290.474915 244.772766,290.106445 
	C246.623779,290.003510 249.123795,288.597137 250.058975,287.031738 
	C258.248322,273.323608 266.248352,259.499054 274.091278,245.588791 
	C277.429749,239.667664 280.675079,233.626175 283.192200,227.331268 
	C285.207001,222.292480 287.686371,218.835220 293.857086,219.650314 
	C294.590118,214.134018 295.475464,209.024643 295.819763,203.879044 
	C295.915771,202.444000 294.616089,199.775482 293.610016,199.593918 
	C287.605408,198.510300 286.872131,194.000916 285.946228,189.291748 
	C279.489899,156.454834 248.384415,131.560257 215.106125,133.084473 
	C162.766373,134.261139 129.699341,190.384018 154.422928,236.536758 
	C163.675430,253.808838 173.863449,270.581879 183.774429,287.494843 
	C184.523071,288.772400 186.439072,290.057007 187.869400,290.124115 
	C194.013306,290.412354 200.179749,290.175262 206.335388,290.280457 
	C208.860138,290.323608 209.672470,289.357330 209.188461,286.076080 
M417.860657,455.104370 
	C417.377380,447.405670 419.844391,441.213470 427.350586,438.132385 
	C435.082214,434.958832 441.264923,437.891479 446.437683,443.794739 
	C449.687531,447.503510 452.934082,451.215179 455.598938,454.259369 
	C464.786682,445.069702 472.859680,436.994965 481.412018,428.440796 
	C477.777161,424.990723 473.790619,421.220856 469.819702,417.434540 
	C464.592010,412.449890 462.863739,406.555145 465.690521,399.767853 
	C468.531311,392.946869 474.075928,390.234283 481.211456,390.250885 
	C486.664032,390.263550 492.116638,390.253387 497.609436,390.253387 
	C497.609436,378.308319 497.609436,366.784210 497.609436,355.119720 
	C492.226624,355.119720 487.229797,354.948517 482.249176,355.159729 
	C474.693573,355.480072 468.766327,352.997101 465.708984,345.757080 
	C462.553345,338.284363 465.099335,332.132996 470.840393,327.002869 
	C474.643768,323.604187 478.519379,320.286377 481.543365,317.647369 
	C472.338440,308.403748 464.287231,300.318695 455.893463,291.889618 
	C452.476379,295.434662 448.749969,299.469635 444.839203,303.317261 
	C439.342224,308.725494 433.291748,310.066345 427.110352,307.257446 
	C420.657318,304.325073 417.719788,299.180176 417.866699,292.109558 
	C417.983063,286.509888 417.890106,280.905884 417.890106,275.265869 
	C405.891388,275.265869 394.477753,275.265869 382.771393,275.265869 
	C382.771393,280.502075 382.677399,285.474274 382.793793,290.441589 
	C382.962463,297.640625 380.900116,303.643433 374.016663,306.991760 
	C367.378784,310.220581 361.438019,308.512939 355.789551,303.360382 
	C351.956360,299.215149 348.123169,295.069885 344.940094,291.627655 
	C336.013306,300.498840 327.813904,308.647125 319.458069,316.950867 
	C322.988861,320.442444 326.873108,324.324615 330.803314,328.159790 
	C335.820007,333.055206 337.485382,338.785858 334.970337,345.429352 
	C332.565491,351.781586 327.304749,355.041748 319.641296,355.108368 
	C314.056549,355.156921 308.471069,355.117889 302.835632,355.117889 
	C302.835632,367.164612 302.835632,378.544464 302.835632,390.254242 
	C308.671448,390.254242 314.149078,390.235107 319.626495,390.259003 
	C326.799927,390.290314 332.236115,393.255798 334.949036,400.072144 
	C337.578857,406.679749 335.829193,412.489929 330.816132,417.346283 
	C326.767975,421.267761 322.614929,425.081024 318.648285,428.810822 
	C327.367279,437.529724 335.480164,445.642517 344.010925,454.173157 
	C347.567566,450.499359 351.300476,446.728821 354.936462,442.866974 
	C359.965485,437.525543 365.858734,435.345886 372.946472,438.033966 
	C379.519684,440.526886 382.708130,445.989532 382.765442,454.386688 
	C382.801361,459.649475 382.772125,464.912720 382.772125,470.241638 
	C394.816254,470.241638 406.218048,470.241638 417.683777,470.241638 
	C417.683777,465.253937 417.683777,460.608673 417.860657,455.104370 
z"/>
<path fill="#DFD1CC" opacity="1.000000" stroke="none" 
	d="
M356.030548,303.986755 
	C361.438019,308.512939 367.378784,310.220581 374.016663,306.991760 
	C380.900116,303.643433 382.962463,297.640625 382.793793,290.441589 
	C382.677399,285.474274 382.771393,280.502075 382.771393,275.265869 
	C394.477753,275.265869 405.891388,275.265869 417.890106,275.265869 
	C417.890106,280.905884 417.983063,286.509888 417.866699,292.109558 
	C417.719788,299.180176 420.657318,304.325073 427.110352,307.257446 
	C433.291748,310.066345 439.342224,308.725494 444.839203,303.317261 
	C448.749969,299.469635 452.476379,295.434662 455.893463,291.889618 
	C464.287231,300.318695 472.338440,308.403748 481.543365,317.647369 
	C478.519379,320.286377 474.643768,323.604187 470.840393,327.002869 
	C465.099335,332.132996 462.553345,338.284363 465.708984,345.757080 
	C468.766327,352.997101 474.693573,355.480072 482.249176,355.159729 
	C487.229797,354.948517 492.226624,355.119720 497.609436,355.119720 
	C497.609436,366.784210 497.609436,378.308319 497.609436,390.253387 
	C492.116638,390.253387 486.664032,390.263550 481.211456,390.250885 
	C474.075928,390.234283 468.531311,392.946869 465.690521,399.767853 
	C462.863739,406.555145 464.592010,412.449890 469.819702,417.434540 
	C473.790619,421.220856 477.777161,424.990723 481.412018,428.440796 
	C472.859680,436.994965 464.786682,445.069702 455.598938,454.259369 
	C452.934082,451.215179 449.687531,447.503510 446.437683,443.794739 
	C441.264923,437.891479 435.082214,434.958832 427.350586,438.132385 
	C419.844391,441.213470 417.377380,447.405670 417.401917,455.520447 
	C395.521332,450.180756 377.528931,439.151917 363.310883,421.908600 
	C349.570862,405.245026 342.001312,386.112518 340.112610,364.821625 
	C338.717773,349.097656 341.210541,333.681519 347.242157,319.072754 
	C349.442596,313.743073 353.059723,308.998322 356.030548,303.986755 
M377.438873,323.889801 
	C352.059723,336.113586 340.024841,364.579742 349.251343,390.561920 
	C358.416931,416.372559 385.795593,431.639587 411.868774,425.478943 
	C443.211884,418.073120 461.458618,386.354431 451.707733,356.226074 
	C441.783569,325.562469 408.520233,310.794281 377.438873,323.889801 
z"/>
<path fill="#FDCF5A" opacity="1.000000" stroke="none" 
	d="
M215.982391,133.225098 
	C248.384415,131.560257 279.489899,156.454834 285.946228,189.291748 
	C286.872131,194.000916 287.605408,198.510300 293.610016,199.593918 
	C294.616089,199.775482 295.915771,202.444000 295.819763,203.879044 
	C295.475464,209.024643 294.590118,214.134018 293.857086,219.650314 
	C287.686371,218.835220 285.207001,222.292480 283.192200,227.331268 
	C280.675079,233.626175 277.429749,239.667664 274.091278,245.588791 
	C266.248352,259.499054 258.248322,273.323608 250.058975,287.031738 
	C249.123795,288.597137 246.623779,290.003510 244.772766,290.106445 
	C238.145294,290.474915 231.484863,290.250763 224.530167,290.250763 
	C224.530167,273.458313 224.530167,257.021545 224.530167,240.166107 
	C236.387009,236.926880 245.822891,230.181122 251.190201,218.483368 
	C254.797913,210.620529 255.569962,202.436981 253.543350,194.097397 
	C249.203613,176.239365 233.053604,164.221771 214.875214,165.106354 
	C197.046036,165.973923 182.523193,179.192413 179.386520,197.407639 
	C176.179108,216.033737 186.832474,231.536957 209.188461,240.349365 
	C209.188461,255.483124 209.188461,270.779602 208.816193,286.334961 
	C202.514328,276.416534 196.834167,266.083527 190.600723,256.095856 
	C179.321732,238.023819 170.888336,219.286621 172.908844,197.172760 
	C173.907501,186.242783 176.910706,176.099579 182.012970,166.466599 
	C189.802429,151.760208 201.751160,141.333542 215.982391,133.225098 
z"/>
<path fill="#05E29B" opacity="1.000000" stroke="none" 
	d="
M356.113678,44.378853 
	C376.818817,47.961014 391.009399,59.685661 399.119965,78.918823 
	C401.822968,85.328644 402.582001,86.009048 410.143585,86.554260 
	C410.519897,92.890137 410.903412,99.347702 411.322235,106.399979 
	C403.791809,105.926102 402.137634,110.732597 400.292664,116.133156 
	C393.006348,137.461548 378.274506,150.381683 355.404175,153.785400 
	C350.557983,149.018707 345.965485,144.824280 341.814545,140.230820 
	C335.456268,133.194702 330.668518,125.231583 329.402832,115.822708 
	C331.598541,117.851906 333.469482,119.740189 335.380615,121.586861 
	C340.285095,126.325806 343.793762,126.383659 348.647003,121.572968 
	C358.675751,111.632141 368.658722,101.644592 378.595337,91.611687 
	C382.718811,87.448242 382.960052,83.156479 379.497131,79.840012 
	C376.308929,76.786659 371.904297,77.101845 368.042633,80.905327 
	C360.467834,88.365913 352.996063,95.931038 345.466125,103.437309 
	C344.352753,104.547188 343.154510,105.571899 342.591644,106.088669 
	C337.006927,100.879807 331.913208,96.128922 326.873932,90.952560 
	C330.133179,72.185722 338.903168,57.349445 354.419342,46.720181 
	C355.167603,46.207584 355.557129,45.171284 356.113678,44.378853 
z"/>
<path fill="#CBBDB8" opacity="1.000000" stroke="none" 
	d="
M355.910034,303.673584 
	C353.059723,308.998322 349.442596,313.743073 347.242157,319.072754 
	C341.210541,333.681519 338.717773,349.097656 340.112610,364.821625 
	C342.001312,386.112518 349.570862,405.245026 363.310883,421.908600 
	C377.528931,439.151917 395.521332,450.180756 417.313477,455.950012 
	C417.683777,460.608673 417.683777,465.253937 417.683777,470.241638 
	C406.218048,470.241638 394.816254,470.241638 382.772125,470.241638 
	C382.772125,464.912720 382.801361,459.649475 382.765442,454.386688 
	C382.708130,445.989532 379.519684,440.526886 372.946472,438.033966 
	C365.858734,435.345886 359.965485,437.525543 354.936462,442.866974 
	C351.300476,446.728821 347.567566,450.499359 344.010925,454.173157 
	C335.480164,445.642517 327.367279,437.529724 318.648285,428.810822 
	C322.614929,425.081024 326.767975,421.267761 330.816132,417.346283 
	C335.829193,412.489929 337.578857,406.679749 334.949036,400.072144 
	C332.236115,393.255798 326.799927,390.290314 319.626495,390.259003 
	C314.149078,390.235107 308.671448,390.254242 302.835632,390.254242 
	C302.835632,378.544464 302.835632,367.164612 302.835632,355.117889 
	C308.471069,355.117889 314.056549,355.156921 319.641296,355.108368 
	C327.304749,355.041748 332.565491,351.781586 334.970337,345.429352 
	C337.485382,338.785858 335.820007,333.055206 330.803314,328.159790 
	C326.873108,324.324615 322.988861,320.442444 319.458069,316.950867 
	C327.813904,308.647125 336.013306,300.498840 344.940094,291.627655 
	C348.123169,295.069885 351.956360,299.215149 355.910034,303.673584 
z"/>
<path fill="#FB6830" opacity="1.000000" stroke="none" 
	d="
M78.124199,350.663147 
	C97.437317,354.338623 110.257225,365.808441 117.261292,383.859497 
	C119.223114,388.915588 121.267593,393.065704 128.247070,392.475922 
	C128.247070,399.154175 128.247070,405.434357 128.247070,411.544739 
	C119.790352,414.470276 119.904350,414.523590 115.928795,423.023346 
	C108.726105,438.422729 96.950470,448.385498 79.585396,452.204834 
	C68.181114,445.550293 60.438641,436.615479 56.091450,424.623779 
	C60.094685,420.254761 63.959045,416.188446 68.277306,411.644501 
	C72.797424,416.382690 76.517044,420.424805 80.395157,424.308685 
	C84.683525,428.603455 88.740334,428.964264 92.165825,425.578735 
	C95.405273,422.377075 95.042740,417.786530 90.955666,413.735260 
	C86.950462,409.765015 82.742523,405.999298 78.320061,401.859741 
	C83.188324,397.123322 87.441338,393.133331 91.519844,388.972290 
	C95.008415,385.413116 95.224525,380.873901 92.306778,377.830414 
	C89.252533,374.644501 84.566292,374.836456 80.837921,378.566132 
	C76.754539,382.650940 72.864403,386.928925 69.246109,390.747009 
	C64.347763,386.177979 60.101383,382.217041 56.000908,377.918762 
	C60.675617,367.797180 66.699387,359.251648 75.973213,353.324768 
	C76.884888,352.742188 77.416298,351.564575 78.124199,350.663147 
z"/>
<path fill="#FDC244" opacity="1.000000" stroke="none" 
	d="
M215.544250,133.154785 
	C201.751160,141.333542 189.802429,151.760208 182.012970,166.466599 
	C176.910706,176.099579 173.907501,186.242783 172.908844,197.172760 
	C170.888336,219.286621 179.321732,238.023819 190.600723,256.095856 
	C196.834167,266.083527 202.514328,276.416534 208.715790,286.794006 
	C209.672470,289.357330 208.860138,290.323608 206.335388,290.280457 
	C200.179749,290.175262 194.013306,290.412354 187.869400,290.124115 
	C186.439072,290.057007 184.523071,288.772400 183.774429,287.494843 
	C173.863449,270.581879 163.675430,253.808838 154.422928,236.536758 
	C129.699341,190.384018 162.766373,134.261139 215.544250,133.154785 
z"/>
<path fill="#0ED18F" opacity="1.000000" stroke="none" 
	d="
M329.096436,115.662849 
	C330.668518,125.231583 335.456268,133.194702 341.814545,140.230820 
	C345.965485,144.824280 350.557983,149.018707 354.988434,153.745956 
	C338.516449,157.082764 324.010681,152.330261 311.457245,141.851593 
	C292.529388,126.052078 286.505341,100.589691 295.771698,78.015923 
	C304.978546,55.587135 327.367371,41.943523 351.912323,43.806572 
	C353.074554,43.894783 354.235168,44.003468 355.755127,44.240738 
	C355.557129,45.171284 355.167603,46.207584 354.419342,46.720181 
	C338.903168,57.349445 330.133179,72.185722 326.564056,90.775864 
	C321.376068,87.466095 317.882263,87.364227 314.764465,90.691231 
	C311.692810,93.968994 312.245392,98.331795 316.287292,102.501915 
	C320.547913,106.897705 324.825989,111.276581 329.096436,115.662849 
z"/>
<path fill="#EC4324" opacity="1.000000" stroke="none" 
	d="
M77.802322,350.444641 
	C77.416298,351.564575 76.884888,352.742188 75.973213,353.324768 
	C66.699387,359.251648 60.675617,367.797180 55.663521,377.743347 
	C50.379082,374.800018 46.440651,375.000000 43.739212,378.486298 
	C41.057720,381.946869 41.637405,385.379883 45.551933,389.477875 
	C47.378967,391.390503 49.157516,393.349426 50.981205,395.729492 
	C51.003078,400.091583 51.001793,404.011505 50.875320,408.244537 
	C48.434006,410.935394 45.910347,413.147339 43.848446,415.728241 
	C40.412716,420.028656 42.106163,426.141418 47.398254,427.134216 
	C50.019390,427.625977 53.086979,425.737885 55.952583,424.926453 
	C60.438641,436.615479 68.181114,445.550293 79.205338,452.189880 
	C52.031342,459.754150 22.179735,439.988861 16.901846,411.436951 
	C10.253821,375.473022 41.675995,343.680939 77.802322,350.444641 
z"/>
<path fill="#E1D3CE" opacity="1.000000" stroke="none" 
	d="
M197.062881,305.482300 
	C218.806107,305.482300 240.549332,305.482300 262.674255,305.482300 
	C262.674255,316.994690 262.674255,328.496185 262.674255,340.384399 
	C241.048889,340.384399 219.491913,340.384399 197.469391,339.785553 
	C197.023529,327.951904 197.043198,316.717102 197.062881,305.482300 
z"/>
<path fill="#98E5FB" opacity="1.000000" stroke="none" 
	d="
M63.095547,83.895248 
	C68.080299,83.787018 73.070946,83.509964 78.045845,83.683754 
	C79.366074,83.729874 81.156776,84.850624 81.849281,86.006485 
	C87.059998,94.703690 92.121567,103.493599 97.021027,112.369751 
	C97.651054,113.511131 97.619408,115.611786 96.982483,116.764076 
	C92.077675,125.637611 87.036240,134.440262 81.787575,143.113846 
	C81.042839,144.344543 78.988297,145.346207 77.475571,145.442581 
	C72.998840,145.727753 68.489853,145.506516 63.516144,145.016846 
	C58.350227,136.190323 53.827679,127.730606 48.896549,119.516174 
	C46.730530,115.907951 46.789555,113.048523 48.922695,109.440620 
	C53.876839,101.061401 58.398556,92.426514 63.095547,83.895248 
z"/>
<path fill="#98E5FB" opacity="1.000000" stroke="none" 
	d="
M425.086426,176.898163 
	C428.057953,176.789124 431.052643,176.422241 433.990601,176.686478 
	C435.336212,176.807495 437.074219,177.864700 437.772980,179.018799 
	C442.313446,186.518188 446.699066,194.116104 450.908844,201.805786 
	C451.534698,202.949066 451.498932,205.038223 450.864838,206.193268 
	C446.645508,213.878769 442.259033,221.477081 437.710297,228.972290 
	C437.020691,230.108551 435.268036,231.047089 433.896210,231.225861 
	C431.290894,231.565369 428.605347,231.288956 425.458466,230.791092 
	C421.659302,224.398651 418.782776,218.186005 414.934418,212.648804 
	C410.777527,206.667725 410.702362,201.574112 414.803436,195.508286 
	C418.757111,189.660538 421.699646,183.129181 425.086426,176.898163 
z"/>
<path fill="#61D7F6" opacity="1.000000" stroke="none" 
	d="
M62.711250,83.741585 
	C58.398556,92.426514 53.876839,101.061401 48.922695,109.440620 
	C46.789555,113.048523 46.730530,115.907951 48.896549,119.516174 
	C53.827679,127.730606 58.350227,136.190323 63.086647,144.873322 
	C57.669437,145.325592 52.201401,145.592331 46.741772,145.473373 
	C45.589272,145.448242 44.042522,144.263672 43.398842,143.183456 
	C38.219418,134.491379 33.127056,125.743492 28.250883,116.879112 
	C27.562111,115.626991 27.599228,113.330566 28.295660,112.065369 
	C33.094376,103.347557 38.054531,94.712379 43.242020,86.221237 
	C44.061085,84.880547 46.248642,83.755936 47.878010,83.647057 
	C52.674232,83.326591 57.507931,83.567039 62.711250,83.741585 
z"/>
<path fill="#62DAF9" opacity="1.000000" stroke="none" 
	d="
M424.701599,176.748047 
	C421.699646,183.129181 418.757111,189.660538 414.803436,195.508286 
	C410.702362,201.574112 410.777527,206.667725 414.934418,212.648804 
	C418.782776,218.186005 421.659302,224.398651 425.015137,230.674255 
	C419.093750,231.132339 413.117310,231.372238 407.151184,231.216324 
	C405.844482,231.182190 404.068237,230.044907 403.369873,228.893188 
	C398.811615,221.375702 394.427032,213.749588 390.166504,206.058823 
	C389.584686,205.008606 389.489044,203.114731 390.049744,202.097214 
	C394.373169,194.251266 398.811768,186.462463 403.492889,178.826492 
	C404.230499,177.623260 406.345398,176.708664 407.866791,176.641464 
	C413.340057,176.399780 418.831909,176.578232 424.701599,176.748047 
z"/>
<path fill="#C7BAB5" opacity="1.000000" stroke="none" 
	d="
M196.601440,305.375000 
	C197.043198,316.717102 197.023529,327.951904 197.015671,339.664612 
	C188.412506,340.142517 179.797501,340.142517 170.829224,340.142517 
	C170.829224,328.720978 170.829224,317.329254 170.829224,305.267731 
	C179.306686,305.267731 187.723343,305.267731 196.601440,305.375000 
z"/>
<path fill="#FDFDFD" opacity="1.000000" stroke="none" 
	d="
M221.053314,180.824432 
	C231.341019,182.387253 238.883682,190.902527 239.632065,201.798889 
	C240.369736,212.539459 233.107010,221.994827 221.227386,224.724213 
	C218.130661,219.969955 214.684509,215.839722 213.175217,211.093567 
	C209.526031,199.618118 213.442200,189.624344 221.053314,180.824432 
z"/>
<path fill="#05E29B" opacity="1.000000" stroke="none" 
	d="
M85.039108,241.860779 
	C90.292831,240.563629 93.675804,242.364639 95.949684,247.440460 
	C98.173500,252.404526 103.244270,257.002655 103.273079,261.784271 
	C103.301773,266.545746 98.199020,271.161072 96.113136,276.160400 
	C93.863052,281.553314 90.245689,283.210815 84.404564,281.762451 
	C81.159225,276.200745 78.161148,271.206024 75.728653,265.949554 
	C74.808830,263.961884 74.279335,260.922058 75.153229,259.135162 
	C78.061790,253.187912 81.687996,247.591614 85.039108,241.860779 
z"/>
<path fill="#EFE7E3" opacity="1.000000" stroke="none" 
	d="
M220.728500,180.586609 
	C213.442200,189.624344 209.526031,199.618118 213.175217,211.093567 
	C214.684509,215.839722 218.130661,219.969955 220.845840,224.681488 
	C212.312988,227.190689 205.195053,224.104950 199.623459,217.757477 
	C193.393707,210.660187 192.139740,202.293655 196.041367,193.607666 
	C199.843018,185.144272 206.727844,180.761932 215.942642,180.085922 
	C217.415314,179.977890 218.915970,180.251556 220.728500,180.586609 
z"/>
<path fill="#0ED18F" opacity="1.000000" stroke="none" 
	d="
M84.663750,241.708344 
	C81.687996,247.591614 78.061790,253.187912 75.153229,259.135162 
	C74.279335,260.922058 74.808830,263.961884 75.728653,265.949554 
	C78.161148,271.206024 81.159225,276.200745 83.967125,281.661255 
	C83.840561,282.061890 83.680717,282.125549 83.517349,282.136444 
	C69.134315,283.095367 69.470497,282.883179 61.876156,270.832397 
	C58.040554,264.745972 58.061333,260.338928 61.301777,253.563812 
	C66.388412,242.928680 73.381676,239.367935 84.663750,241.708344 
z"/>
<path fill="#726A6A" opacity="1.000000" stroke="none" 
	d="
M221.983383,385.857452 
	C211.619110,389.950073 200.256943,382.439819 199.247787,370.651367 
	C198.908020,366.682373 199.264969,362.658508 199.122330,358.666199 
	C199.025681,355.961273 200.328781,355.183929 202.765350,355.246582 
	C207.258286,355.362061 211.754272,355.358368 216.650299,355.959686 
	C216.484802,366.667389 216.609146,376.703613 221.983383,385.857452 
z"/>
<path fill="#9D9696" opacity="1.000000" stroke="none" 
	d="
M222.340088,385.866272 
	C216.609146,376.703613 216.484802,366.667389 217.106720,356.100403 
	C222.603043,355.685822 228.044266,355.685822 233.454453,355.685822 
	C235.539673,371.884125 234.541138,381.228973 222.340088,385.866272 
z"/>
<path fill="#030303" opacity="1.000000" stroke="none" 
	d="
M377.780273,323.722595 
	C408.520233,310.794281 441.783569,325.562469 451.707733,356.226074 
	C461.458618,386.354431 443.211884,418.073120 411.868774,425.478943 
	C385.795593,431.639587 358.416931,416.372559 349.251343,390.561920 
	C340.024841,364.579742 352.059723,336.113586 377.780273,323.722595 
M405.330017,334.141266 
	C385.629028,331.745331 370.521393,343.329071 364.481110,357.218353 
	C357.727661,372.747437 361.449768,390.441803 374.376678,401.749786 
	C383.048767,409.335815 393.142883,413.465790 405.853241,411.001953 
	C423.226471,409.833618 438.541260,393.075775 439.105988,374.615906 
	C439.735657,354.034088 425.603638,336.857910 405.330017,334.141266 
z"/>
<path fill="#000805" opacity="1.000000" stroke="none" 
	d="
M329.402832,115.822708 
	C324.825989,111.276581 320.547913,106.897705 316.287292,102.501915 
	C312.245392,98.331795 311.692810,93.968994 314.764465,90.691231 
	C317.882263,87.364227 321.376068,87.466095 326.509613,91.201340 
	C331.913208,96.128922 337.006927,100.879807 342.591644,106.088669 
	C343.154510,105.571899 344.352753,104.547188 345.466125,103.437309 
	C352.996063,95.931038 360.467834,88.365913 368.042633,80.905327 
	C371.904297,77.101845 376.308929,76.786659 379.497131,79.840012 
	C382.960052,83.156479 382.718811,87.448242 378.595337,91.611687 
	C368.658722,101.644592 358.675751,111.632141 348.647003,121.572968 
	C343.793762,126.383659 340.285095,126.325806 335.380615,121.586861 
	C333.469482,119.740189 331.598541,117.851906 329.402832,115.822708 
z"/>
<path fill="#030101" opacity="1.000000" stroke="none" 
	d="
M50.958054,395.287354 
	C49.157516,393.349426 47.378967,391.390503 45.551933,389.477875 
	C41.637405,385.379883 41.057720,381.946869 43.739212,378.486298 
	C46.440651,375.000000 50.379082,374.800018 55.517609,378.080719 
	C60.101383,382.217041 64.347763,386.177979 69.246109,390.747009 
	C72.864403,386.928925 76.754539,382.650940 80.837921,378.566132 
	C84.566292,374.836456 89.252533,374.644501 92.306778,377.830414 
	C95.224525,380.873901 95.008415,385.413116 91.519844,388.972290 
	C87.441338,393.133331 83.188324,397.123322 78.320061,401.859741 
	C82.742523,405.999298 86.950462,409.765015 90.955666,413.735260 
	C95.042740,417.786530 95.405273,422.377075 92.165825,425.578735 
	C88.740334,428.964264 84.683525,428.603455 80.395157,424.308685 
	C76.517044,420.424805 72.797424,416.382690 68.277306,411.644501 
	C63.959045,416.188446 60.094685,420.254761 56.091454,424.623779 
	C53.086979,425.737885 50.019390,427.625977 47.398254,427.134216 
	C42.106163,426.141418 40.412716,420.028656 43.848446,415.728241 
	C45.910347,413.147339 48.434006,410.935394 51.184814,408.121368 
	C53.825058,405.997101 56.030624,404.309082 58.575909,402.361053 
	C55.240101,399.263519 53.099079,397.275452 50.958054,395.287354 
z"/>
<path fill="#FB6830" opacity="1.000000" stroke="none" 
	d="
M50.981209,395.729492 
	C53.099079,397.275452 55.240101,399.263519 58.575909,402.361053 
	C56.030624,404.309082 53.825058,405.997101 51.310001,407.808289 
	C51.001793,404.011505 51.003078,400.091583 50.981209,395.729492 
z"/>
<path fill="#746C6C" opacity="1.000000" stroke="none" 
	d="
M405.035706,410.913391 
	C393.142883,413.465790 383.048767,409.335815 374.376678,401.749786 
	C361.449768,390.441803 357.727661,372.747437 364.481110,357.218353 
	C370.521393,343.329071 385.629028,331.745331 405.577881,334.652283 
	C402.221466,339.096802 398.617157,343.030304 394.698517,347.146942 
	C381.249695,351.598175 373.675232,361.449860 374.137909,373.663269 
	C374.595764,385.748596 382.970428,395.364410 395.779877,398.786652 
	C396.436096,400.149719 396.877716,401.230835 397.584106,402.095703 
	C400.018036,405.075714 402.544495,407.980164 405.035706,410.913391 
z"/>
<path fill="#9B9494" opacity="1.000000" stroke="none" 
	d="
M395.012878,346.963806 
	C398.617157,343.030304 402.221466,339.096802 405.954529,334.821594 
	C425.603638,336.857910 439.735657,354.034088 439.105988,374.615906 
	C438.541260,393.075775 423.226471,409.833618 405.444458,410.957672 
	C402.544495,407.980164 400.018036,405.075714 397.584106,402.095703 
	C396.877716,401.230835 396.436096,400.149719 396.246155,398.868835 
	C409.987976,399.701569 421.085541,392.741119 424.977631,380.783478 
	C428.702759,369.338806 424.002258,356.847534 413.742889,350.486481 
	C407.910461,346.870209 401.549347,346.573212 395.012878,346.963806 
z"/>
<path fill="#030303" opacity="1.000000" stroke="none" 
	d="
M394.698486,347.146912 
	C401.549347,346.573212 407.910461,346.870209 413.742889,350.486481 
	C424.002258,356.847534 428.702759,369.338806 424.977631,380.783478 
	C421.085541,392.741119 409.987976,399.701569 396.152954,398.487793 
	C382.970428,395.364410 374.595764,385.748596 374.137909,373.663269 
	C373.675232,361.449860 381.249695,351.598175 394.698486,347.146912 
M399.637360,361.863770 
	C392.432831,363.081116 388.199829,368.290771 389.366882,374.503998 
	C390.436401,380.198212 395.700897,384.333923 401.166748,383.773956 
	C406.751190,383.201782 410.967255,378.715118 411.141510,373.158875 
	C411.338165,366.890289 407.471130,362.788940 399.637360,361.863770 
z"/>
<path fill="#F9F9F9" opacity="1.000000" stroke="none" 
	d="
M400.052734,361.851196 
	C407.471130,362.788940 411.338165,366.890289 411.141510,373.158875 
	C410.967255,378.715118 406.751190,383.201782 401.166748,383.773956 
	C395.700897,384.333923 390.436401,380.198212 389.366882,374.503998 
	C388.199829,368.290771 392.432831,363.081116 400.052734,361.851196 
z"/>
</svg>