<svg xmlns="http://www.w3.org/2000/svg" viewBox="-49 141 512 512" width="16" height="16" aria-hidden="true" class="_24ydrq0 _1286nb15l _1286nb12qo">
                        <path d="M413 422H1c-13.807 0-25-11.193-25-25s11.193-25 25-25h412c13.807 0 25 11.193 25 25s-11.193 25-25 25m0 140H1c-13.807 0-25-11.193-25-25s11.193-25 25-25h412c13.807 0 25 11.193 25 25s-11.193 25-25 25m0-280H1c-13.807 0-25-11.193-25-25s11.193-25 25-25h412c13.807 0 25 11.193 25 25s-11.193 25-25 25"></path>
                    </svg>