<svg version="1.1" id="Layer_1" xmlns="http://www.w3.org/2000/svg" xmlns:xlink="http://www.w3.org/1999/xlink" x="0px" y="0px"
	 width="100%" viewBox="0 0 128 128" enable-background="new 0 0 128 128" xml:space="preserve">
<path fill="#000000" opacity="1.000000" stroke="none" 
	d="
M53.000000,129.000000 
	C35.725655,129.000000 18.451309,129.000000 1.000000,129.000000 
	C1.000000,103.646049 1.000000,78.291679 1.451003,52.452820 
	C4.200613,51.959278 6.549376,52.226768 8.776363,51.822857 
	C9.866530,51.625130 10.730319,50.179260 11.696568,49.298294 
	C10.757867,48.553402 9.883966,47.292259 8.867772,47.164703 
	C6.279080,46.839752 3.626821,47.021202 1.000000,47.000000 
	C1.000000,31.739954 1.000000,16.479908 1.000000,1.000000 
	C16.020180,1.000000 31.041431,1.000000 46.547398,1.451000 
	C47.041016,4.200685 46.773415,6.549492 47.177135,8.776606 
	C47.374767,9.866838 48.820377,10.730842 49.701157,11.697235 
	C50.446198,10.758655 51.707607,9.884894 51.835163,8.868797 
	C52.160172,6.279768 51.978756,3.627164 52.000000,1.000000 
	C77.666718,1.000000 103.333443,1.000000 129.000000,1.000000 
	C129.000000,5.428002 129.000000,9.739873 128.610764,14.555872 
	C126.936371,15.328263 125.512276,15.327264 124.388046,15.907389 
	C115.378410,20.556534 106.434509,25.332825 97.451546,30.034010 
	C92.396103,32.679745 87.304825,35.256985 82.231407,37.864193 
	C74.565002,21.045799 59.556118,12.820812 43.115974,15.976138 
	C29.847412,18.522749 20.983360,26.463831 16.899755,39.214012 
	C12.763715,52.127914 15.381877,63.609356 24.952560,73.681450 
	C28.126471,77.021637 29.975075,81.706894 32.021385,85.973000 
	C32.538101,87.050240 31.861965,89.129044 31.080124,90.317406 
	C28.934679,93.578369 28.061920,107.034431 30.274584,110.240417 
	C31.067551,111.389374 32.580055,112.014145 33.611622,113.032654 
	C35.057358,114.460083 37.057003,115.823792 37.583099,117.584297 
	C38.764740,121.538452 41.506516,122.814682 44.997013,124.073288 
	C47.881760,125.113480 50.348209,127.313751 53.000000,129.000000 
M84.709023,17.162624 
	C83.906548,16.187553 83.104073,15.212481 82.301598,14.237411 
	C80.111511,16.153418 77.841835,17.991081 75.806122,20.059063 
	C75.447884,20.422979 75.817322,22.301933 76.290588,22.518074 
	C77.252106,22.957197 78.885376,23.225300 79.580040,22.695776 
	C81.386719,21.318602 82.835648,19.472107 84.709023,17.162624 
M15.066255,83.467621 
	C17.755867,84.471214 24.263422,80.146461 23.632637,77.559036 
	C23.417295,76.675720 20.701136,75.451256 20.509266,75.658966 
	C18.404795,77.937157 16.573786,80.467972 15.066255,83.467621 
M19.482542,22.915394 
	C20.804541,22.489426 22.126539,22.063457 23.448538,21.637487 
	C21.692924,19.374485 20.057388,16.994984 18.075134,14.951869 
	C17.701891,14.567166 15.662550,15.241640 14.939963,15.970549 
	C14.532599,16.381479 14.962760,18.101040 15.513862,18.877470 
	C16.464220,20.216400 17.803198,21.279493 19.482542,22.915394 
z"/>
<path fill="#282323" opacity="1.000000" stroke="none" 
	d="
M53.468269,129.000000 
	C50.348209,127.313751 47.881760,125.113480 44.997013,124.073288 
	C41.506516,122.814682 38.764740,121.538452 37.583099,117.584297 
	C37.057003,115.823792 35.057358,114.460083 33.611622,113.032654 
	C32.580055,112.014145 31.067551,111.389374 30.274584,110.240417 
	C28.061920,107.034431 28.934679,93.578369 31.080124,90.317406 
	C31.861965,89.129044 32.538101,87.050240 32.021385,85.973000 
	C29.975075,81.706894 28.126471,77.021637 24.952560,73.681450 
	C15.381877,63.609356 12.763715,52.127914 16.899755,39.214012 
	C20.983360,26.463831 29.847412,18.522749 43.115974,15.976138 
	C59.556118,12.820812 74.565002,21.045799 82.231407,37.864193 
	C87.304825,35.256985 92.396103,32.679745 97.451546,30.034010 
	C106.434509,25.332825 115.378410,20.556534 124.388046,15.907389 
	C125.512276,15.327264 126.936371,15.328263 128.610764,15.029999 
	C129.000000,17.700014 129.000000,20.400026 128.648376,23.620525 
	C127.490112,25.718628 126.441040,27.219677 125.914848,28.885859 
	C121.315460,43.449795 116.559189,57.972919 112.429871,72.671211 
	C111.206024,77.027473 108.699623,77.816956 105.570168,76.741150 
	C98.592735,74.342522 93.494720,76.375214 89.363678,82.077164 
	C88.689316,83.007950 87.769569,83.773911 86.906006,84.552589 
	C80.662849,90.182091 80.744530,93.143585 86.142227,99.906242 
	C87.874107,102.076088 89.719650,106.343803 88.736725,108.078606 
	C85.869133,113.139748 87.238930,115.735840 91.640907,118.418427 
	C92.825142,119.140099 93.885246,121.741470 93.469864,122.955742 
	C93.026154,124.252747 90.872810,125.434433 89.280693,125.759224 
	C86.879562,126.249054 84.247498,125.597031 81.841309,126.074280 
	C78.498932,126.737206 75.274765,127.996185 72.000000,129.000000 
	C65.978851,129.000000 59.957695,129.000000 53.468269,129.000000 
M94.005272,49.861458 
	C85.547882,55.514992 77.090492,61.168526 68.400017,66.977867 
	C72.291031,72.038925 75.752663,76.541489 78.430946,80.025139 
	C81.598999,73.723663 84.563629,67.424797 87.902412,61.330929 
	C90.031403,57.445133 92.714653,53.863014 95.666916,49.954906 
	C95.662903,49.705482 95.658882,49.456062 95.654861,49.206638 
	C95.328163,49.367409 95.001472,49.528179 94.005272,49.861458 
M77.689941,38.861534 
	C77.043770,37.517403 76.509613,36.104561 75.733826,34.839943 
	C69.141640,24.093969 59.581429,18.952515 46.942039,19.892490 
	C34.989410,20.781391 26.743582,27.256746 22.244238,37.966480 
	C17.593323,49.037003 18.645098,59.990181 26.918310,69.097908 
	C32.155071,74.862900 36.671932,80.673248 37.429062,88.697464 
	C45.758511,88.697464 53.694370,88.697464 60.869038,88.697464 
	C63.185501,83.121262 65.314407,77.996552 67.577515,72.548775 
	C64.639267,68.035751 64.630470,68.082596 59.134163,67.050873 
	C51.897366,65.692429 44.676105,64.251236 36.520046,62.665138 
	C38.717758,61.452602 40.103497,60.650982 41.521633,59.911499 
	C52.527176,54.172684 63.558231,48.482185 74.523430,42.667427 
	C75.832832,41.973061 76.794159,40.622322 77.689941,38.861534 
M106.715195,30.236635 
	C87.487221,40.272270 68.259247,50.307907 47.758724,61.007721 
	C52.823654,61.954418 56.478531,62.301289 59.908638,63.369728 
	C63.615795,64.524467 66.472046,63.799156 69.608513,61.618294 
	C80.103157,54.321117 90.760590,47.255718 101.438911,40.228024 
	C102.760475,39.358276 104.583542,39.250561 106.174217,38.789730 
	C105.692192,40.474861 105.597939,42.422371 104.664452,43.802032 
	C99.110161,52.011036 93.361824,60.088741 87.325165,68.715736 
	C94.411507,70.125755 100.833992,71.403679 107.696800,72.769218 
	C112.901749,55.904289 118.054390,39.208839 123.517647,21.506948 
	C117.362953,24.736601 112.385490,27.348501 106.715195,30.236635 
M61.760036,117.190376 
	C60.489632,119.455902 59.219231,121.721436 57.659180,124.503494 
	C66.793053,123.189415 75.870468,121.883461 85.734161,120.464386 
	C80.743576,115.875542 79.133766,111.320015 83.705170,107.562057 
	C81.311272,101.908394 77.227180,96.815765 77.610992,92.085670 
	C78.164986,85.258385 74.105324,82.436638 70.193878,78.245918 
	C68.676125,81.557220 66.131866,86.046356 67.431206,88.081230 
	C70.765282,93.302666 69.145370,98.642853 69.916153,103.861679 
	C70.573921,108.315376 69.253983,111.637672 64.887306,113.582481 
	C63.708912,114.107300 62.903805,115.470261 61.760036,117.190376 
M51.488037,109.079063 
	C55.148773,109.067078 58.833057,109.285675 62.457211,108.915520 
	C63.692177,108.789383 64.775887,107.182281 65.928711,106.251869 
	C64.754028,105.165764 63.608692,103.177811 62.399952,103.138481 
	C53.922218,102.862602 45.427345,102.859108 36.949097,103.124542 
	C35.659626,103.164917 34.427872,105.048752 33.169415,106.079918 
	C34.451500,107.074844 35.672012,108.816093 37.026955,108.927879 
	C41.489948,109.296066 46.001617,109.074287 51.488037,109.079063 
M56.401897,98.990753 
	C57.900990,98.990417 59.400242,98.975700 60.899132,98.992981 
	C63.344746,99.021164 66.170891,98.894966 65.692795,95.679497 
	C65.518211,94.505325 62.656387,92.976112 60.970104,92.910820 
	C53.319641,92.614655 45.644135,92.610329 37.994781,92.921852 
	C36.345234,92.989021 34.766617,94.797859 33.155327,95.804436 
	C34.749077,96.865929 36.290352,98.735344 37.946064,98.842880 
	C43.751392,99.219948 49.596134,98.990135 56.401897,98.990753 
M44.903229,119.218880 
	C47.230690,119.263443 49.560833,119.252441 51.885044,119.364471 
	C56.303181,119.577415 57.961037,117.690781 56.705700,113.265442 
	C51.822212,113.265442 47.064735,113.265442 41.143719,113.265442 
	C42.318245,115.623703 43.166153,117.326172 44.903229,119.218880 
M90.435280,73.255066 
	C88.849007,73.056488 87.262733,72.857910 85.470734,72.633583 
	C84.952988,75.167450 84.504684,77.361496 83.825325,80.686310 
	C86.609528,77.966690 88.651169,75.972397 90.435280,73.255066 
z"/>
<path fill="#000000" opacity="1.000000" stroke="none" 
	d="
M72.468658,129.000000 
	C75.274765,127.996185 78.498932,126.737206 81.841309,126.074280 
	C84.247498,125.597031 86.879562,126.249054 89.280693,125.759224 
	C90.872810,125.434433 93.026154,124.252747 93.469864,122.955742 
	C93.885246,121.741470 92.825142,119.140099 91.640907,118.418427 
	C87.238930,115.735840 85.869133,113.139748 88.736725,108.078606 
	C89.719650,106.343803 87.874107,102.076088 86.142227,99.906242 
	C80.744530,93.143585 80.662849,90.182091 86.906006,84.552589 
	C87.769569,83.773911 88.689316,83.007950 89.363678,82.077164 
	C93.494720,76.375214 98.592735,74.342522 105.570168,76.741150 
	C108.699623,77.816956 111.206024,77.027473 112.429871,72.671211 
	C116.559189,57.972919 121.315460,43.449795 125.914848,28.885859 
	C126.441040,27.219677 127.490112,25.718628 128.648376,24.070507 
	C129.000000,58.905228 129.000000,93.810455 129.000000,129.000000 
	C110.313400,129.000000 91.625359,129.000000 72.468658,129.000000 
z"/>
<path fill="#231F20" opacity="1.000000" stroke="none" 
	d="
M1.000000,47.416664 
	C3.626821,47.021202 6.279080,46.839752 8.867772,47.164703 
	C9.883966,47.292259 10.757867,48.553402 11.696568,49.298294 
	C10.730319,50.179260 9.866530,51.625130 8.776363,51.822857 
	C6.549376,52.226768 4.200613,51.959278 1.451003,51.984161 
	C1.000000,50.611111 1.000000,49.222221 1.000000,47.416664 
z"/>
<path fill="#231F20" opacity="1.000000" stroke="none" 
	d="
M51.583336,1.000000 
	C51.978756,3.627164 52.160172,6.279768 51.835163,8.868797 
	C51.707607,9.884894 50.446198,10.758655 49.701157,11.697235 
	C48.820377,10.730842 47.374767,9.866838 47.177135,8.776606 
	C46.773415,6.549492 47.041016,4.200685 47.016056,1.451000 
	C48.388889,1.000000 49.777779,1.000000 51.583336,1.000000 
z"/>
<path fill="#241F1F" opacity="1.000000" stroke="none" 
	d="
M84.568161,17.487743 
	C82.835648,19.472107 81.386719,21.318602 79.580040,22.695776 
	C78.885376,23.225300 77.252106,22.957197 76.290588,22.518074 
	C75.817322,22.301933 75.447884,20.422979 75.806122,20.059063 
	C77.841835,17.991081 80.111511,16.153418 82.301598,14.237410 
	C83.104073,15.212481 83.906548,16.187553 84.568161,17.487743 
z"/>
<path fill="#231F20" opacity="1.000000" stroke="none" 
	d="
M14.867391,83.198906 
	C16.573786,80.467972 18.404795,77.937157 20.509266,75.658966 
	C20.701136,75.451256 23.417295,76.675720 23.632637,77.559036 
	C24.263422,80.146461 17.755867,84.471214 14.867391,83.198906 
z"/>
<path fill="#231F20" opacity="1.000000" stroke="none" 
	d="
M19.230824,22.686863 
	C17.803198,21.279493 16.464220,20.216400 15.513862,18.877470 
	C14.962760,18.101040 14.532599,16.381479 14.939963,15.970549 
	C15.662550,15.241640 17.701891,14.567166 18.075134,14.951869 
	C20.057388,16.994984 21.692924,19.374485 23.448538,21.637487 
	C22.126539,22.063457 20.804541,22.489426 19.230824,22.686863 
z"/>
<path fill="#FDDF86" opacity="1.000000" stroke="none" 
	d="
M77.803383,39.218681 
	C76.794159,40.622322 75.832832,41.973061 74.523430,42.667427 
	C63.558231,48.482185 52.527176,54.172684 41.521633,59.911499 
	C40.103497,60.650982 38.717758,61.452602 36.520046,62.665138 
	C44.676105,64.251236 51.897366,65.692429 59.134163,67.050873 
	C64.630470,68.082596 64.639267,68.035751 67.577515,72.548775 
	C65.314407,77.996552 63.185501,83.121262 60.869038,88.697464 
	C53.694370,88.697464 45.758511,88.697464 37.429062,88.697464 
	C36.671932,80.673248 32.155071,74.862900 26.918310,69.097908 
	C18.645098,59.990181 17.593323,49.037003 22.244238,37.966480 
	C26.743582,27.256746 34.989410,20.781391 46.942039,19.892490 
	C59.581429,18.952515 69.141640,24.093969 75.733826,34.839943 
	C76.509613,36.104561 77.043770,37.517403 77.803383,39.218681 
z"/>
<path fill="#EBE6E2" opacity="1.000000" stroke="none" 
	d="
M107.061615,30.098518 
	C112.385490,27.348501 117.362953,24.736601 123.517647,21.506948 
	C118.054390,39.208839 112.901749,55.904289 107.696800,72.769218 
	C100.833992,71.403679 94.411507,70.125755 87.325165,68.715736 
	C93.361824,60.088741 99.110161,52.011036 104.664452,43.802032 
	C105.597939,42.422371 105.692192,40.474861 106.174217,38.789730 
	C104.583542,39.250561 102.760475,39.358276 101.438911,40.228024 
	C90.760590,47.255718 80.103157,54.321117 69.608513,61.618294 
	C66.472046,63.799156 63.615795,64.524467 59.908638,63.369728 
	C56.478531,62.301289 52.823654,61.954418 47.758724,61.007721 
	C68.259247,50.307907 87.487221,40.272270 107.061615,30.098518 
z"/>
<path fill="#000000" opacity="1.000000" stroke="none" 
	d="
M61.843697,116.819443 
	C62.903805,115.470261 63.708912,114.107300 64.887306,113.582481 
	C69.253983,111.637672 70.573921,108.315376 69.916153,103.861679 
	C69.145370,98.642853 70.765282,93.302666 67.431206,88.081230 
	C66.131866,86.046356 68.676125,81.557220 70.193878,78.245918 
	C74.105324,82.436638 78.164986,85.258385 77.610992,92.085670 
	C77.227180,96.815765 81.311272,101.908394 83.705170,107.562057 
	C79.133766,111.320015 80.743576,115.875542 85.734161,120.464386 
	C75.870468,121.883461 66.793053,123.189415 57.659180,124.503494 
	C59.219231,121.721436 60.489632,119.455902 61.843697,116.819443 
z"/>
<path fill="#DFCAB8" opacity="1.000000" stroke="none" 
	d="
M95.149384,50.144733 
	C92.714653,53.863014 90.031403,57.445133 87.902412,61.330929 
	C84.563629,67.424797 81.598999,73.723663 78.430946,80.025139 
	C75.752663,76.541489 72.291031,72.038925 68.400017,66.977867 
	C77.090492,61.168526 85.547882,55.514992 94.458984,49.888832 
	C94.912689,49.916206 95.149384,50.144733 95.149384,50.144733 
z"/>
<path fill="#F1634C" opacity="1.000000" stroke="none" 
	d="
M50.991314,109.079071 
	C46.001617,109.074287 41.489948,109.296066 37.026955,108.927879 
	C35.672012,108.816093 34.451500,107.074844 33.169418,106.079918 
	C34.427872,105.048752 35.659626,103.164917 36.949097,103.124542 
	C45.427345,102.859108 53.922218,102.862602 62.399952,103.138481 
	C63.608692,103.177811 64.754028,105.165764 65.928711,106.251869 
	C64.775887,107.182281 63.692177,108.789383 62.457211,108.915520 
	C58.833057,109.285675 55.148773,109.067078 50.991314,109.079071 
z"/>
<path fill="#F2634D" opacity="1.000000" stroke="none" 
	d="
M55.913902,98.990753 
	C49.596134,98.990135 43.751392,99.219948 37.946064,98.842880 
	C36.290352,98.735344 34.749077,96.865929 33.155327,95.804436 
	C34.766617,94.797859 36.345234,92.989021 37.994781,92.921852 
	C45.644135,92.610329 53.319641,92.614655 60.970104,92.910820 
	C62.656387,92.976112 65.518211,94.505325 65.692795,95.679497 
	C66.170891,98.894966 63.344746,99.021164 60.899132,98.992981 
	C59.400242,98.975700 57.900990,98.990417 55.913902,98.990753 
z"/>
<path fill="#6BD3DF" opacity="1.000000" stroke="none" 
	d="
M44.458645,119.123756 
	C43.166153,117.326172 42.318245,115.623703 41.143719,113.265442 
	C47.064735,113.265442 51.822212,113.265442 56.705700,113.265442 
	C57.961037,117.690781 56.303181,119.577415 51.885044,119.364471 
	C49.560833,119.252441 47.230690,119.263443 44.458645,119.123756 
z"/>
<path fill="#D2BEAE" opacity="1.000000" stroke="none" 
	d="
M90.564041,73.616585 
	C88.651169,75.972397 86.609528,77.966690 83.825325,80.686310 
	C84.504684,77.361496 84.952988,75.167450 85.470734,72.633583 
	C87.262733,72.857910 88.849007,73.056488 90.564041,73.616585 
z"/>
<path fill="#DFCAB8" opacity="1.000000" stroke="none" 
	d="
M94.793732,49.802578 
	C95.001472,49.528179 95.328163,49.367409 95.654861,49.206638 
	C95.658882,49.456062 95.662903,49.705482 95.408150,50.049820 
	C95.149384,50.144733 94.912689,49.916206 94.793732,49.802578 
z"/>
</svg>